<svg version="1.2" baseProfile="tiny-ps" xmlns="http://www.w3.org/2000/svg" viewBox="0 0 2289 711" width="2289" height="711">
	<title>Layer 1</title>
	<style>
		tspan { white-space:pre }
		.s0 { fill: #1c6dd0 } 
		.s1 { fill: #ffffff } 
	</style>
	<g id="Layer 1">
		<path id="Path 0" class="s0" d="m2206.5 0.5l9.5 2.62c5.22 1.44 12.87 4.17 17 6.06c4.13 1.89 10.2 5.27 13.5 7.52c3.3 2.24 8.22 6.04 10.94 8.44c2.72 2.4 7.44 7.52 10.5 11.37c3.06 3.85 7.43 10.6 9.71 15c2.28 4.4 5.27 11.6 6.65 16c1.38 4.4 3 11.49 3.6 15.75c0.77 5.44 1.09 87.09 1.08 274.5c-0.01 255.36-0.09 267.13-1.86 275.75c-1.02 4.95-3.5 13.05-5.53 18c-2.03 4.95-6.08 12.6-9.01 17c-2.93 4.4-8.42 10.85-12.21 14.34c-3.79 3.49-10.03 8.43-13.88 10.97c-3.85 2.55-10.15 5.94-14 7.54c-3.85 1.6-11.27 4.09-26 8.15l-1102 0.24c-759.19 0.16-1102.31-0.09-1103-0.8c-0.66-0.68-1.12-105.29-1.37-308.24c-0.33-279.24-0.22-308.13 1.25-317.45c0.89-5.64 2.54-13.06 3.68-16.5c1.13-3.44 3.82-9.85 5.98-14.25c2.15-4.4 6.79-11.6 10.3-16c3.51-4.4 9.48-10.56 13.27-13.68c3.79-3.13 10.49-7.73 14.89-10.24c4.4-2.5 11.6-5.7 16-7.11c4.4-1.41 11.38-3.17 15.5-3.91c6.27-1.13 181.76-1.33 2125.5-1.06z" />
		<path id="Path 1" class="s1" d="m0.75 647c0.16 11.27 0.16 29.95 0 41.5c-0.16 11.55-0.29 2.33-0.29-20.5c0-22.83 0.13-32.27 0.29-21zm2202.5 62.25c2.06-0.14 3.75 0.2 3.75 0.75c0 0.67-368.08 0.92-2205.5 0.5l1099-0.5c604.45-0.28 1100.69-0.61 1102.75-0.75zm-2043.25-521.25h8v25h31v-25h9v60h-9v-28h-31v28h-8v-30v-30zm109 0h9v60h-9v-30v-30zm21 0h8v60h-8v-30v-30zm119 0h9v19l4-2c2.32-1.16 5.99-2 8.75-2c2.99 0 5.95 0.74 8 2c1.79 1.1 4.04 3.21 5 4.7c1.47 2.27 1.79 5.53 2.25 38.3h-8l-0.01-14.25c0-7.84-0.45-15.94-1-18c-0.55-2.06-1.89-4.2-2.99-4.75c-1.1-0.55-3.58-1-5.5-1c-1.93 0-4.4 0.45-5.5 1c-1.1 0.55-2.68 2.35-3.5 4c-1.13 2.27-1.5 6.67-1.5 33h-9v-30v-30zm229 0h9v60h-9v-30v-30zm21 0h8.69l-0.32 8.25c-0.18 4.54-0.67 9.29-1.1 10.57c-0.58 1.74-1.39 2.24-3.26 2c-2.04-0.26-2.62-1.05-3.19-4.32c-0.39-2.2-0.73-6.81-0.76-10.25l-0.06-6.25zm117.09-0.09l13.25 0.59l8.21 24.5c7.12 21.26 8.34 24.17 9.2 22c0.54-1.37 4.16-11.72 8.05-23c3.89-11.28 7.32-21.29 7.63-22.25c0.46-1.41 1.74-1.75 12.57-1.75v60h-9l0.03-22.75c0.02-12.51-0.32-22.37-0.75-21.9c-0.43 0.46-4.15 10.59-15.78 44.15l-8 0.59l-7.41-21.79c-4.07-11.99-7.79-22.24-8.27-22.79c-0.49-0.56-0.85 8.92-0.83 44.5h-9l0.05-30.05l0.05-30.05zm119.91 0.09h8v9.5c0 5.22 0.11 9.5 0.25 9.51c0.14 0 2.05-0.9 4.25-2.01c2.26-1.14 5.96-2.01 8.5-2.01c2.48 0.01 6.08 0.8 8 1.76c2 1 4.25 3.25 5.25 5.25c1.46 2.93 1.75 6.33 1.75 38h-8l0.03-16.25c0.03-14.81-0.15-16.49-2-19c-1.7-2.29-2.79-2.75-6.53-2.75c-3.56 0-5.18 0.61-11 5.83l-0.5 32.17h-8v-30v-30zm317 0h8v60h-4c-2.89 0-4-0.42-4-1.5c0-1.23-0.58-1.14-3.25 0.5c-1.9 1.17-5.01 2-7.5 2c-2.34 0-5.71-0.62-7.5-1.37c-1.79-0.76-4.46-2.67-5.95-4.25c-1.48-1.58-3.44-4.67-4.35-6.87c-0.91-2.2-1.67-6.7-1.69-10c-0.02-3.3 0.53-7.8 1.23-10c0.7-2.2 2.15-5.25 3.23-6.77c1.07-1.52 3.71-3.66 5.86-4.75c2.15-1.09 5.82-1.99 8.16-2.01c2.93-0.02 5.42 0.76 11.75 5.03v-10v-10zm73 0h9v60h-9v-30v-30zm49 0h8v20l3.75-2.53c2.73-1.84 5.04-2.52 8.5-2.5c2.61 0.02 6.41 0.82 8.43 1.78c2.53 1.2 4.24 3 5.48 5.75c1.49 3.33 1.8 6.82 1.84 37.5h-8l0.02-14.75c0.01-8.11-0.44-16.21-1-18c-0.56-1.79-1.92-3.7-3.02-4.25c-1.1-0.55-3.35-1-5-1c-1.65 0-4.24 0.62-5.75 1.38c-1.51 0.76-3.31 2.56-4 4c-0.83 1.74-1.25 7.68-1.25 32.62h-8v-30v-30zm487 0h8v60h-4c-2.89 0-4-0.42-4-1.5c0-1.24-0.64-1.16-3.75 0.5c-2.19 1.17-5.62 1.99-8.25 1.98c-2.94-0.02-5.97-0.88-8.75-2.5c-3.03-1.76-5.02-3.99-6.91-7.73c-2.16-4.26-2.67-6.66-2.7-12.75c-0.03-5.42 0.52-8.75 1.97-12c1.11-2.49 3.74-5.84 5.89-7.5c2.82-2.18 5.27-3.11 8.95-3.41c3.9-0.32 5.92 0.08 8.81 1.75c2.06 1.19 3.98 2.16 4.25 2.16c0.28 0 0.5-4.28 0.5-9.5v-9.5zm71 0h8v9.5c0 5.22 0.11 9.5 0.25 9.51c0.14 0 2.05-0.9 4.25-2.01c2.26-1.14 5.96-2.01 8.5-2.01c2.47 0.01 6.07 0.8 8 1.76c2 1 4.25 3.25 5.25 5.25c1.46 2.93 1.75 6.33 1.75 38h-8l0.03-16.25c0.03-14.81-0.15-16.49-2-19c-1.7-2.29-2.79-2.75-6.53-2.75c-3.56 0-5.18 0.61-11 5.83l-0.5 32.17h-8v-30v-30zm48 0h9v8h-9v-4v-4zm-1547.71 1.71c0.5 0.23 0.87 3.54 0.71 14.29h3.5c3.22 0 3.5 0.24 3.5 3c0 2.76-0.28 3-7 3l0.5 31.5l3.5 0.05c3.31 0.05 3.5 0.24 3.5 3.5c0 3.43-0.03 3.45-5 3.77c-3.81 0.24-5.59-0.15-7.5-1.66c-2.48-1.96-2.5-2.14-3-37.16l-2.75-0.25c-2.2-0.2-2.8-0.8-3-3c-0.22-2.44 0.08-2.75 2.75-2.75c2.97 0 3-0.06 3-5.5c0-5.13 0.22-5.63 3.19-7.35c1.75-1.02 3.6-1.67 4.1-1.44zm1335.94-0.1c0.54 0.28 0.93 3.64 0.78 14.4h3.5c3.22 0 3.5 0.24 3.5 3c0 2.76-0.28 3-7 3l0.5 31.5l3.25-0.25c2.91-0.22 3.3 0.07 3.75 2.75c0.28 1.65 0.28 3.45 0 4c-0.28 0.55-2.64 1.02-5.25 1.04c-3.08 0.03-5.58-0.59-7.1-1.75c-1.61-1.23-2.62-3.37-3.19-6.79c-0.46-2.75-0.87-10.74-0.96-30.5h-2.5c-2.11 0-2.5-0.47-2.5-3c0-2.53 0.39-3 2.5-3c2.35 0 2.49-0.3 2.37-4.96c-0.13-4.69 0.08-5.1 3.62-7.46c2.07-1.37 4.2-2.26 4.74-1.98zm147.06 0.1c0.5 0.23 0.87 3.54 0.71 14.29h4c3.76 0 3.98 0.17 3.75 2.75c-0.22 2.41-0.71 2.78-7.75 3.25l-0.04 14.75c-0.04 12.13 0.23 14.97 1.5 16c0.85 0.69 2.56 1.14 3.79 1c1.95-0.22 2.25 0.21 2.25 3.25c0 3.37-0.15 3.51-4 3.8c-2.2 0.16-5.12-0.17-6.5-0.73c-1.37-0.57-3.06-2.16-3.75-3.55c-0.84-1.7-1.25-7.73-1.25-34.52h-2.5c-2.11 0-2.5-0.47-2.5-3c0-2.53 0.39-3 2.5-3c2.36 0 2.5-0.3 2.5-5.5c0-5.13 0.22-5.63 3.19-7.35c1.75-1.02 3.6-1.67 4.1-1.44zm-1637.54 13.33c2.89-0.02 6.49 0.44 8 1.02c1.51 0.58 4.04 2.27 5.63 3.75c1.58 1.48 3.71 4.49 4.73 6.69c1.02 2.2 1.86 6.14 1.9 13.5h-16c-14.58 0-16 0.16-15.99 1.75c0.01 0.96 0.88 3.55 1.94 5.75c1.06 2.2 3.15 4.67 4.64 5.5c1.49 0.82 4.15 1.5 5.91 1.5c1.76 0 4.28-0.57 5.6-1.26c1.32-0.69 3.19-2.61 4.15-4.25c1.28-2.18 2.5-2.98 4.5-2.97c1.51 0.01 3.42 0.41 4.25 0.89c1.29 0.75 1.18 1.41-0.79 4.73c-1.26 2.12-3.93 4.98-5.93 6.36c-2.75 1.89-5.25 2.59-10.21 2.87c-5.14 0.29-7.44-0.07-10.57-1.65c-2.2-1.11-4.99-3.08-6.19-4.37c-1.21-1.29-2.89-4.03-3.75-6.1c-0.93-2.24-1.55-6.66-1.53-11c0.01-4.9 0.62-8.55 1.87-11.25c1.02-2.2 2.92-4.96 4.23-6.13c1.31-1.17 3.73-2.84 5.38-3.71c1.65-0.87 5.36-1.6 8.25-1.62zm90-0.02c3.22-0.01 6.7 0.71 9 1.88c2.06 1.05 4.74 2.96 5.94 4.25c1.21 1.29 2.93 4.15 3.84 6.35c0.98 2.38 1.62 6.63 1.59 10.5c-0.03 3.58-0.58 8.07-1.21 10c-0.63 1.92-2.33 4.79-3.78 6.38c-1.45 1.58-4.43 3.71-6.63 4.73c-2.21 1.02-6.24 1.85-9 1.85c-2.75 0-6.8-0.8-9-1.79c-2.2-0.98-5.19-3.34-6.65-5.23c-1.46-1.89-3.14-5.24-3.74-7.44c-0.6-2.2-1.09-6.03-1.09-8.5c0-2.48 0.49-6.3 1.09-8.5c0.6-2.2 2.12-5.51 3.37-7.36c1.31-1.92 4.15-4.16 6.65-5.23c2.4-1.03 6.73-1.88 9.62-1.89zm148.83 0.2c4.87 0.23 6.92 0.88 10.32 3.28c2.42 1.71 5.04 4.72 6.09 7c1.02 2.2 2.11 6.36 3.01 14.5l-33.5-0.05l0.76 3.27c0.42 1.8 1.57 4.4 2.56 5.77c0.99 1.38 3.57 3.35 5.74 4.39c3.33 1.6 4.51 1.71 7.69 0.75c2.61-0.79 4.36-2.21 5.75-4.64c1.53-2.68 2.65-3.5 4.75-3.48c1.51 0.01 3.36 0.35 4.1 0.75c1.1 0.6 1.01 1.46-0.5 4.66c-1.05 2.24-3.55 5.04-5.79 6.5c-2.7 1.76-5.69 2.69-9.5 2.95c-3.06 0.21-7.36-0.22-9.56-0.96c-2.2-0.73-5.31-2.48-6.92-3.88c-1.61-1.4-3.73-4.34-4.73-6.54c-1.12-2.49-1.82-6.46-1.85-10.5c-0.02-3.57 0.66-8.52 1.53-11c0.86-2.48 2.56-5.57 3.77-6.88c1.21-1.31 4-3.24 6.2-4.28c2.87-1.37 5.71-1.82 10.08-1.62zm47.38 0.13c2.5 0.31 4.98 0.94 5.51 1.4c0.62 0.53 0.44 2-0.5 4.05c-1.31 2.85-1.81 3.15-4.47 2.6c-1.65-0.34-4.01-0.34-5.25-0.01c-1.31 0.35-2.88 2.07-3.75 4.1c-1.1 2.57-1.5 7.33-1.5 32.5h-8v-44h3.5c2.9 0 3.49 0.36 3.44 2.09c-0.06 1.99 0.1 1.96 3.21-0.61c2.82-2.32 3.9-2.62 7.81-2.13zm29.25-0.35c2.63 0 6.47 0.7 8.53 1.56c2.06 0.86 4.59 2.32 5.61 3.25c1.02 0.93 2.76 3.49 3.87 5.69c1.11 2.2 2.3 6.37 3.27 14.52l-33.5-0.02l0.97 3.75c0.53 2.06 1.81 4.87 2.84 6.25c1.03 1.37 3.63 3.09 5.78 3.82c3.35 1.13 4.45 1.09 7.66-0.25c2.06-0.86 4.54-2.91 5.5-4.56c1.02-1.75 2.58-2.99 3.75-2.99c1.1 0 3.01 0.23 6.5 0.98l-1.89 3.75c-1.04 2.06-2.73 4.51-3.75 5.44c-1.02 0.93-3.54 2.39-5.61 3.25c-2.06 0.86-6.11 1.56-9 1.57c-3.47 0.01-6.77-0.76-9.74-2.25c-2.47-1.24-5.53-3.83-6.8-5.76c-1.27-1.92-2.78-5.3-3.37-7.5c-0.59-2.22-0.8-6.89-0.46-10.5c0.48-5.06 1.3-7.48 3.73-10.91c1.72-2.43 4.97-5.47 7.22-6.75c2.72-1.55 5.7-2.34 8.88-2.34zm144.78 0.08c2.86-0.05 5.69 0.65 7.75 1.92c1.79 1.1 3.52 2.78 3.86 3.75c0.55 1.59 0.74 1.56 2.07-0.37c0.81-1.17 3.01-2.85 4.89-3.75c1.88-0.9 5.23-1.63 7.43-1.63c2.2 0 5.35 0.68 7 1.5c1.65 0.82 3.67 2.85 4.5 4.5c1.17 2.33 1.5 7 1.5 39h-8l-0.03-17.25c-0.02-14.95-0.25-17.49-1.75-19.03c-1.08-1.12-3.16-1.77-5.55-1.75c-2.91 0.02-4.53 0.75-9.67 6.03v32h-8l-0.25-16.9c-0.23-15.32-0.44-17.1-2.25-19.03c-1.27-1.35-3.19-2.12-5.25-2.1c-1.79 0.02-4.15 0.48-5.25 1.03c-1.1 0.55-2.68 2.35-3.5 4c-1.13 2.27-1.5 6.67-1.5 33h-8v-44h3.5c2.79 0 3.55 0.42 3.74 2.07c0.24 2.03 0.29 2.04 2.75 0.22c1.38-1.02 3.18-2.14 4.01-2.49c0.82-0.35 3.52-0.67 6-0.71zm166.25-0.06c2.61-0.01 6.44 0.68 8.5 1.53c2.06 0.86 4.82 2.54 6.13 3.75c1.31 1.21 3.21 3.99 4.23 6.19c1.28 2.76 1.85 6.32 1.85 11.5c0 5.18-0.57 8.74-1.85 11.5c-1.02 2.2-2.92 4.99-4.23 6.19c-1.31 1.21-4.07 2.89-6.13 3.75c-2.06 0.86-5.89 1.55-8.5 1.53c-2.61-0.01-6.55-0.84-8.75-1.83c-2.2-0.99-5.24-3.23-6.75-4.98c-1.51-1.74-3.2-4.86-3.74-6.92c-0.55-2.06-0.99-6.22-0.99-9.25c0-3.03 0.45-7.19 0.99-9.25c0.55-2.06 2.23-5.18 3.74-6.92c1.51-1.74 4.55-3.98 6.75-4.98c2.2-0.99 6.14-1.82 8.75-1.83zm97.5 0c3.75-0.01 7.9 0.68 10.39 1.73c2.53 1.07 4.75 2.91 5.71 4.75c1.18 2.25 1.67 6.98 1.96 19c0.21 8.8 0.79 16.79 1.29 17.75c0.79 1.54 0.35 1.75-3.61 1.75c-2.48 0-4.51-0.34-4.52-0.75c-0.01-0.41-0.35-1.3-0.75-1.97c-0.55-0.91-2.02-0.58-5.73 1.27c-3.53 1.76-6.62 2.48-10.5 2.46c-3.71-0.01-6.56-0.67-8.75-2.02c-1.79-1.1-3.98-3.46-4.87-5.25c-1.1-2.21-1.43-4.53-1.02-7.25c0.37-2.46 1.67-5.07 3.37-6.78c1.52-1.53 4.12-3.2 5.77-3.72c1.65-0.52 6.15-1.42 10-2.01c3.85-0.59 7.79-1.28 8.75-1.53c1.25-0.33 1.75-1.47 1.75-3.96c0-2.55-0.61-3.87-2.25-4.88c-1.24-0.76-3.49-1.66-5-2c-1.51-0.34-4.55-0.17-6.75 0.38c-2.92 0.73-4.4 1.81-5.5 4c-0.83 1.65-2.29 2.99-3.25 2.99c-0.96-0.01-2.76-0.23-4-0.5c-2.01-0.44-2.14-0.78-1.18-3.24c0.59-1.51 1.83-3.6 2.75-4.64c0.92-1.04 3.48-2.72 5.68-3.73c2.5-1.15 6.35-1.85 10.25-1.86zm50.67-0.03c3.17 0 6.02 0.64 7.58 1.7c1.37 0.94 3.01 2.41 3.63 3.26c0.99 1.35 1.52 1.2 4.25-1.2c1.72-1.51 4.36-3.04 5.87-3.39c1.51-0.35 4.77-0.37 7.25-0.04c2.47 0.33 5.35 1.4 6.39 2.39c1.04 0.98 2.5 3.25 3.25 5.04c0.97 2.31 1.36 8.16 1.36 37.25h-8v-16c0-10.08-0.43-16.83-1.15-18.25c-0.63-1.24-1.64-2.58-2.25-2.98c-0.61-0.4-2.56-0.74-4.35-0.75c-1.79-0.01-4.15 0.43-5.25 0.98c-1.1 0.55-2.68 2.57-3.5 4.5c-1.1 2.57-1.5 7.33-1.5 32.5h-8l-0.01-16.25c-0.01-11.05-0.42-17.05-1.27-18.75c-1.02-2.02-2.13-2.56-5.74-2.81c-3.6-0.25-4.92 0.14-6.74 2c-1.24 1.27-2.69 4.11-3.23 6.31c-0.53 2.2-0.98 9.74-1.01 29.5h-8v-44h4c3.34 0 3.99 0.32 3.92 1.97c-0.08 1.86 0.12 1.84 3.67-0.5c2.74-1.81 5.12-2.47 8.83-2.48zm73.08 0.28c5.19 0.39 6.37 0.88 11.5 6.73l1.75-2.1c0.96-1.16 3.1-2.79 4.75-3.63c1.93-0.98 4.84-1.39 8.16-1.15c3.79 0.28 5.85 1.04 7.79 2.88c1.45 1.37 3.06 4.07 3.59 6c0.52 1.92 0.96 10.81 0.96 36h-8l-0.25-16.9c-0.23-15.32-0.44-17.1-2.25-19.03c-1.27-1.35-3.19-2.12-5.25-2.1c-1.79 0.02-4.15 0.48-5.25 1.03c-1.1 0.55-2.68 2.35-3.5 4c-1.13 2.27-1.5 6.67-1.5 33h-8v-16c0-12.22-0.35-16.71-1.5-19c-1.32-2.65-2.02-3-5.86-3c-3.24 0-4.98 0.61-6.75 2.35c-1.31 1.29-2.73 3.88-3.15 5.75c-0.42 1.87-0.76 9.36-0.74 29.9h-8v-44h3.5c2.67 0 3.62 0.48 4 2c0.48 1.93 0.63 1.91 4.25-0.59c3.28-2.26 4.51-2.53 9.75-2.14zm70-0.05c6.37 0.22 8.66 0.74 11.25 2.53c2.1 1.46 3.6 3.57 4.24 6c0.55 2.06 1 9.94 1 17.5c0 7.56 0.46 14.87 1.01 16.25c0.98 2.44 0.9 2.5-3.5 2.5c-3.33 0-4.5-0.39-4.5-1.5c0-0.82-0.34-1.7-0.75-1.95c-0.41-0.25-3 0.66-5.75 2.02c-3.33 1.64-6.67 2.46-10 2.45c-2.75-0.01-6.58-0.81-8.5-1.77c-2.24-1.12-4.17-3.18-5.38-5.75c-1.37-2.92-1.68-4.95-1.14-7.5c0.41-1.92 2.15-4.9 3.88-6.61c2.11-2.09 4.86-3.48 8.39-4.25c2.89-0.63 6.26-1.14 7.5-1.15c1.24 0 3.94-0.45 6-1c3.43-0.91 3.75-1.29 3.75-4.49c0-2.55-0.61-3.87-2.25-4.88c-1.24-0.76-3.49-1.66-5-2c-1.51-0.34-4.55-0.17-6.75 0.38c-3.04 0.76-4.3 1.72-5.25 4.01c-0.92 2.22-1.9 3-3.75 2.98c-1.37-0.01-3.1-0.35-3.84-0.76c-0.89-0.49-1.1-1.57-0.63-3.23c0.39-1.37 1.44-3.35 2.34-4.39c0.9-1.04 3.43-2.74 5.63-3.78c3.09-1.46 5.81-1.82 12-1.61zm245.25-0.14c3.44-0.05 7.71 0.53 9.5 1.28c1.79 0.75 4.15 2.37 5.25 3.6c1.78 1.99 2.07 4.16 2.6 19.39c0.33 9.43 0.89 17.93 1.25 18.9c0.55 1.48 0.04 1.75-3.35 1.75c-3.17 0-4.1-0.42-4.5-2c-0.28-1.1-0.73-2-1-2c-0.28 0-2.64 1.14-5.25 2.52c-3.37 1.79-6.27 2.52-10 2.5c-2.89-0.01-6.6-0.7-8.25-1.52c-1.65-0.82-3.92-2.74-5.03-4.25c-1.22-1.65-2.02-4.25-2-6.5c0.02-2.06 0.71-5.1 1.53-6.75c0.83-1.65 3.19-3.84 5.25-4.87c2.06-1.03 7.57-2.43 12.25-3.11c4.68-0.68 9.06-1.42 9.75-1.63c0.69-0.22 1.25-1.52 1.25-2.89c0-1.37-0.46-3.38-1.02-4.47c-0.56-1.08-2.81-2.43-5-3c-2.3-0.6-5.57-0.7-7.73-0.24c-2.64 0.56-4.34 1.73-5.75 3.96c-1.36 2.16-2.79 3.18-4.5 3.19c-1.37 0.01-3.11-0.31-3.85-0.71c-1.1-0.6-1.01-1.44 0.5-4.58c1.02-2.12 2.97-4.55 4.35-5.42c1.38-0.86 3.63-1.91 5-2.32c1.38-0.41 5.31-0.78 8.75-0.83zm92-0.05c3.32-0.02 6.72 0.7 9.25 1.96c2.2 1.1 5.08 3.46 6.4 5.25c1.32 1.79 2.89 5.05 3.49 7.25c0.6 2.2 1.1 5.46 1.1 10.5h-32l0 2.75c0 1.51 0.9 4.21 2 6c1.1 1.79 3.01 3.78 4.25 4.42c1.24 0.64 4.13 1.2 6.42 1.25c3.15 0.06 4.81-0.53 6.79-2.42c1.44-1.38 2.82-3.29 3.08-4.25c0.31-1.17 1.45-1.75 3.46-1.75c1.65 0 3.67 0.22 4.5 0.5c1.21 0.4 1.29 1.03 0.43 3.25c-0.59 1.51-2.05 3.81-3.25 5.1c-1.2 1.29-3.98 3.26-6.18 4.37c-3.13 1.58-5.43 1.94-10.57 1.65c-5.08-0.29-7.52-0.99-10.75-3.12c-2.4-1.58-5.11-4.56-6.37-7c-1.66-3.23-2.2-6.05-2.23-11.75c-0.02-4.12 0.51-9.19 1.19-11.25c0.68-2.06 2.7-5.17 4.48-6.91c1.79-1.74 4.6-3.75 6.25-4.46c1.65-0.72 5.36-1.32 8.25-1.34zm73.5-0.05c2.61 0 5.99 0.49 7.5 1.07c1.51 0.58 3.99 2.27 5.51 3.75c1.52 1.48 3.32 3.93 4 5.44c0.68 1.52 1.01 2.97 0.74 3.24c-0.28 0.26-2.07 0.75-4 1.07c-3.21 0.54-3.62 0.33-5-2.68c-0.97-2.11-2.74-3.76-5-4.66c-2.97-1.18-4.03-1.18-7-0.01c-1.93 0.76-4.55 2.93-5.83 4.83c-2.08 3.08-2.3 4.39-2 12.14c0.31 8.1 0.53 8.89 3.33 11.72c1.65 1.67 4.24 3.27 5.75 3.56c1.51 0.29 4.32-0.15 6.25-0.97c2.48-1.06 4.01-2.68 5.25-5.53c1.39-3.19 2.27-4.02 4.25-3.98c1.37 0.02 3.11 0.38 3.84 0.78c1.1 0.6 0.99 1.57-0.55 5.23c-1.1 2.62-3.52 5.76-5.78 7.5c-2.85 2.2-5.23 3.1-8.95 3.38c-2.78 0.21-6.64-0.11-8.56-0.71c-1.92-0.6-4.74-2.01-6.25-3.13c-1.51-1.12-3.61-3.73-4.66-5.79c-1.05-2.06-2.23-6-2.61-8.75c-0.38-2.75-0.2-7.47 0.4-10.5c0.6-3.03 2.12-7.07 3.37-9c1.25-1.92 4.3-4.52 6.77-5.76c2.79-1.4 6.29-2.26 9.24-2.25zm42.45-0.01c2.09-0.01 4.64 0.59 5.67 1.34c1.54 1.11 1.7 1.88 0.92 4.27c-0.88 2.68-1.34 2.91-5.75 2.91c-4.09 0-5.11 0.41-6.92 2.82c-1.92 2.55-2.14 4.3-2.62 33.68h-8v-44h4c3.29 0 4.01 0.35 4.05 1.95c0.04 1.81 0.23 1.77 2.45-0.5c1.71-1.74 3.51-2.46 6.2-2.47zm32.87 0.23c4.87 0.23 6.92 0.88 10.32 3.28c2.42 1.71 5.04 4.72 6.09 7c1.02 2.2 2.11 6.36 3.01 14.5l-33.5-0.05l0.76 3.27c0.42 1.8 1.57 4.4 2.56 5.77c0.99 1.38 3.57 3.35 5.74 4.39c3.33 1.6 4.51 1.71 7.69 0.75c2.61-0.79 4.36-2.21 5.75-4.64c1.53-2.68 2.65-3.5 4.75-3.48c1.51 0.01 3.36 0.35 4.1 0.75c1.1 0.6 1.01 1.46-0.5 4.66c-1.05 2.24-3.55 5.04-5.79 6.5c-2.7 1.76-5.69 2.69-9.5 2.95c-3.06 0.21-7.36-0.22-9.56-0.96c-2.2-0.73-5.31-2.48-6.92-3.88c-1.61-1.4-3.73-4.34-4.73-6.54c-1.12-2.49-1.82-6.46-1.85-10.5c-0.02-3.57 0.66-8.52 1.53-11c0.86-2.48 2.56-5.57 3.77-6.88c1.21-1.31 4-3.24 6.2-4.28c2.87-1.37 5.71-1.82 10.08-1.62zm48.92 0c6.37 0.22 8.66 0.74 11.25 2.53c2.1 1.46 3.6 3.57 4.24 6c0.55 2.06 1 9.94 1 17.5c0 7.56 0.46 14.87 1.01 16.25c0.98 2.44 0.9 2.5-3.5 2.5c-3.33 0-4.5-0.39-4.5-1.5c0-0.82-0.34-1.7-0.75-1.95c-0.41-0.25-3 0.66-5.75 2.02c-3.33 1.64-6.67 2.46-10 2.45c-2.75-0.01-6.57-0.81-8.5-1.77c-2.24-1.12-4.17-3.18-5.38-5.75c-1.37-2.92-1.68-4.95-1.14-7.5c0.41-1.92 2.15-4.9 3.88-6.61c2.11-2.09 4.86-3.48 8.39-4.25c2.89-0.63 6.26-1.14 7.5-1.15c1.24 0 3.94-0.45 6-1c3.43-0.91 3.75-1.29 3.75-4.49c0-2.55-0.61-3.87-2.25-4.88c-1.24-0.76-3.49-1.66-5-2c-1.51-0.34-4.55-0.17-6.75 0.38c-3.04 0.76-4.3 1.72-5.25 4.01c-0.92 2.22-1.9 3-3.75 2.98c-1.37-0.01-3.1-0.35-3.84-0.76c-0.89-0.49-1.1-1.57-0.63-3.23c0.39-1.37 1.44-3.35 2.34-4.39c0.9-1.04 3.43-2.74 5.63-3.78c3.09-1.46 5.81-1.82 12-1.61zm71.72-0.22c2.63 0 6.47 0.7 8.53 1.56c2.06 0.86 4.59 2.32 5.61 3.25c1.02 0.93 2.76 3.49 3.87 5.69c1.11 2.2 2.3 6.37 3.27 14.52l-33.5-0.02l0.97 3.75c0.53 2.06 1.81 4.87 2.84 6.25c1.03 1.37 3.63 3.09 5.78 3.82c3.35 1.13 4.45 1.09 7.66-0.25c2.06-0.86 4.54-2.91 5.5-4.56c1.02-1.75 2.58-2.99 3.75-2.99c1.1 0 3.01 0.23 6.5 0.98l-1.89 3.75c-1.04 2.06-2.73 4.51-3.75 5.44c-1.02 0.93-3.54 2.39-5.61 3.25c-2.06 0.86-6.11 1.56-9 1.57c-3.47 0.01-6.77-0.76-9.74-2.25c-2.47-1.24-5.53-3.83-6.8-5.76c-1.27-1.92-2.78-5.3-3.37-7.5c-0.59-2.22-0.8-6.89-0.46-10.5c0.48-5.06 1.3-7.48 3.73-10.91c1.72-2.43 4.97-5.47 7.22-6.75c2.72-1.55 5.7-2.34 8.88-2.34zm213.28 0.04c2.75-0.02 6.69 0.41 8.75 0.96c2.08 0.55 4.86 2.33 6.25 3.99c1.38 1.65 2.5 3.9 2.5 5c0 1.1-0.67 2.22-1.5 2.5c-0.83 0.28-2.63 0.5-4 0.5c-1.38 0-2.49-0.56-2.47-1.25c0.02-0.69-0.77-1.98-1.75-2.87c-0.98-0.89-3.02-1.9-4.53-2.25c-1.51-0.35-4.17-0.3-5.92 0.12c-1.74 0.41-3.77 1.76-4.5 3c-0.87 1.47-1.02 2.86-0.44 4c0.56 1.1 4.73 2.91 11.25 4.9c8.12 2.47 10.95 3.82 13.1 6.25c1.96 2.21 2.75 4.18 2.75 6.85c0 2.06-0.9 5.21-2 7c-1.11 1.81-3.88 4.12-6.25 5.23c-2.65 1.23-6.41 1.99-10 2c-3.16 0.01-7.21-0.6-9-1.35c-1.79-0.75-4.25-2.44-5.48-3.75c-1.22-1.31-2.69-3.84-3.25-5.63c-0.93-2.96-0.82-3.29 1.23-3.74c1.24-0.27 3.04-0.49 4-0.5c0.96-0.01 2.15 1 2.64 2.24c0.49 1.24 1.72 2.99 2.75 3.89c1.03 0.9 3.21 1.92 4.86 2.26c1.65 0.34 4.57 0.15 6.5-0.43c1.92-0.58 4.05-1.82 4.72-2.76c0.67-0.94 1.25-2.38 1.28-3.21c0.04-0.82-0.74-2.25-1.72-3.16c-0.98-0.91-5.6-2.71-10.27-4c-5.06-1.39-9.63-3.35-11.31-4.84c-1.55-1.37-3.26-3.85-3.79-5.5c-0.65-2.03-0.61-3.97 0.13-6c0.61-1.65 1.67-3.87 2.35-4.93c0.69-1.06 2.79-2.51 4.68-3.21c1.89-0.7 5.68-1.29 8.43-1.31zm-549.17 0.96h8.67l5.38 15.75c2.96 8.66 5.71 15.75 6.12 15.75c0.41 0 3.28-7.08 12-31.48l8.5-0.02l-2.42 6.25c-1.33 3.44-5.04 13.35-14.08 37.82l-7.94-0.57l-8.12-21.75l-8.12-21.75zm513.67 0h9v44h-9v-22v-22zm-1354 36h9v7c0 6-0.36 7.43-2.5 10c-1.38 1.65-3.18 3-4 3c-0.83 0-1.73-0.67-2-1.5c-0.28-0.83 0.4-2.4 1.5-3.5c1.1-1.1 2-3.12 2-4.5c0-1.83-0.53-2.5-2-2.5c-1.67 0-2-0.67-2-4v-4zm649 0h9l-0.01 4.75c0 2.61-0.45 6.44-1 8.5c-0.59 2.23-2.01 4.36-3.49 5.25c-2.02 1.21-2.8 1.26-4.03 0.25c-1.36-1.11-1.31-1.47 0.43-3.25c1.08-1.1 2.22-3.24 2.53-4.75c0.47-2.27 0.23-2.75-1.43-2.75c-1.67 0-2-0.67-2-4v-4zm-1049 81.06c3.58-0.03 8.07 0.38 10 0.91c1.93 0.52 5.08 1.98 7 3.25c2.13 1.4 4.57 4.44 6.25 7.79c1.51 3.02 2.41 5.79 2 6.14c-0.41 0.35-2.1 0.93-3.75 1.27c-2.77 0.58-3.2 0.27-5.5-3.96c-1.74-3.19-3.72-5.18-6.5-6.51c-2.31-1.1-6.12-1.91-9-1.91c-2.75 0-6.8 0.84-9 1.85c-2.2 1.02-4.99 2.92-6.19 4.23c-1.21 1.31-2.96 4.18-3.9 6.38c-1.11 2.59-1.71 6.65-1.71 11.5c0 4.84 0.6 8.92 1.71 11.5c0.94 2.2 2.92 5.25 4.4 6.77c1.48 1.53 4.95 3.5 7.7 4.39c3.23 1.04 6.77 1.42 10 1.08c2.75-0.29 7.15-1.59 14.53-5.24l-0.03-11.5h-17v-7h26v22l-4.75 3.04c-2.61 1.67-7.23 3.75-10.25 4.63c-3.75 1.08-7.88 1.44-13 1.12c-5.37-0.33-8.92-1.19-12.5-3c-2.75-1.4-6.6-4.28-8.56-6.41c-1.96-2.13-4.41-6.35-5.44-9.37c-1.2-3.51-1.85-8.04-1.79-12.5c0.06-4.36 0.86-9.07 2.13-12.5c1.12-3.02 3.75-7.32 5.85-9.55c2.29-2.44 6-4.91 9.31-6.2c3.53-1.38 7.83-2.16 12-2.19zm39 0.94h8v8h-8v-4v-4zm47 0h8v25h31v-25h9v60h-9v-28h-31v28h-8v-30v-30zm109 0h9v19l3.25-2c1.9-1.17 5.01-2 7.5-2c2.34 0 5.49 0.47 7 1.06c1.51 0.58 4.23 2.5 6.05 4.25c2.12 2.05 3.86 5.16 4.88 8.69c1.11 3.85 1.39 7.37 0.95 11.75c-0.35 3.44-1.36 7.71-2.25 9.5c-0.89 1.79-2.35 4.09-3.25 5.11c-0.9 1.02-3.32 2.71-5.38 3.75c-2.06 1.04-5.66 1.91-8 1.92c-2.93 0.02-5.42-0.76-8-2.5c-3.57-2.41-3.75-2.44-3.75-0.53c0 1.67-0.67 2-8 2v-30v-30zm584 0h8v60h-8v-30v-30zm260 0h9v19l4-2c2.32-1.16 5.99-2 8.75-2c2.99 0 5.95 0.74 8 2c1.79 1.1 4.04 3.21 5 4.7c1.47 2.27 1.79 5.53 2.25 38.3h-8l-0.01-14.25c0-7.84-0.45-15.94-1-18c-0.55-2.06-1.89-4.2-2.99-4.75c-1.1-0.55-3.57-1-5.5-1c-1.92 0-4.4 0.45-5.5 1c-1.1 0.55-2.68 2.35-3.5 4c-1.13 2.27-1.5 6.67-1.5 33h-9v-30v-30zm167 0h8v8h-8v-4v-4zm48 0h8v60h-4c-2.89 0-4-0.42-4-1.5c0-1.23-0.58-1.14-3.25 0.5c-1.9 1.17-5.01 2-7.5 2c-2.34 0-5.71-0.62-7.5-1.37c-1.79-0.76-4.46-2.67-5.95-4.25c-1.48-1.58-3.44-4.67-4.35-6.87c-0.91-2.2-1.67-6.7-1.69-10c-0.02-3.3 0.53-7.8 1.23-10c0.7-2.2 2.15-5.25 3.23-6.77c1.07-1.52 3.71-3.66 5.86-4.75c2.15-1.09 5.82-1.99 8.16-2.01c2.93-0.02 5.42 0.76 11.75 5.03v-10v-10zm221 0h9v9h-9v-4.5v-4.5zm233 0h8v9.5c0 5.22 0.11 9.5 0.25 9.51c0.14 0 2.05-0.9 4.25-2.01c2.26-1.14 5.96-2.01 8.5-2.01c2.48 0.01 6.08 0.8 8 1.76c2 1 4.25 3.25 5.25 5.25c1.46 2.93 1.75 6.33 1.75 38h-8l0.03-16.25c0.03-14.81-0.15-16.49-2-19c-1.7-2.29-2.79-2.75-6.53-2.75c-3.56 0-5.18 0.61-11 5.83l-0.5 32.17h-8v-30v-30zm150 0h9v60h-9v-30v-30zm-1789.78 1.6c0.54 0.28 0.93 3.64 0.78 14.4h3.5c3.22 0 3.5 0.24 3.5 3c0 2.76-0.28 3-7 3l0.5 31.5l3.25-0.25c2.91-0.22 3.3 0.07 3.75 2.75c0.27 1.65 0.27 3.45 0 4c-0.28 0.55-2.64 1.02-5.25 1.04c-3.08 0.03-5.58-0.59-7.1-1.75c-1.61-1.23-2.62-3.37-3.19-6.79c-0.46-2.75-0.87-10.74-0.96-30.5h-2.5c-2.11 0-2.5-0.47-2.5-3c0-2.53 0.39-3 2.5-3c2.35 0 2.49-0.3 2.37-4.96c-0.13-4.69 0.08-5.1 3.62-7.46c2.07-1.37 4.2-2.26 4.74-1.98zm492 0c0.54 0.28 0.93 3.64 0.78 14.4h3.5c3.22 0 3.5 0.24 3.5 3c0 2.76-0.28 3-7 3l0.5 31.5l3.25-0.25c2.91-0.22 3.3 0.07 3.75 2.75c0.28 1.65 0.28 3.45 0 4c-0.28 0.55-2.64 1.02-5.25 1.04c-3.08 0.03-5.58-0.59-7.1-1.75c-1.61-1.23-2.62-3.37-3.19-6.79c-0.46-2.75-0.87-10.74-0.96-30.5h-2.5c-2.11 0-2.5-0.47-2.5-3c0-2.53 0.39-3 2.5-3c2.35 0 2.49-0.3 2.37-4.96c-0.13-4.69 0.08-5.1 3.62-7.46c2.07-1.37 4.2-2.26 4.74-1.98zm50.06 0.1c0.5 0.23 0.87 3.54 0.71 14.29h3.5c3.22 0 3.5 0.24 3.5 3c0 2.76-0.28 3-7 3l0.5 31.5l3.5 0.05c3.31 0.05 3.5 0.24 3.5 3.5c0 3.43-0.03 3.45-5 3.77c-3.81 0.24-5.59-0.15-7.5-1.66c-2.48-1.96-2.5-2.14-3-37.16l-2.75-0.25c-2.2-0.2-2.8-0.8-3-3c-0.22-2.44 0.08-2.75 2.75-2.75c2.97 0 3-0.06 3-5.5c0-5.13 0.22-5.63 3.19-7.35c1.75-1.02 3.6-1.67 4.1-1.44zm412.94-0.1c0.54 0.28 0.93 3.64 0.78 14.4h3.5c3.22 0 3.5 0.24 3.5 3c0 2.76-0.28 3-7 3l0.5 31.5l3.25-0.25c2.91-0.22 3.3 0.07 3.75 2.75c0.27 1.65 0.27 3.45 0 4c-0.28 0.55-2.64 1.02-5.25 1.04c-3.08 0.03-5.58-0.59-7.1-1.75c-1.61-1.23-2.62-3.37-3.19-6.79c-0.46-2.75-0.87-10.74-0.96-30.5h-2.5c-2.11 0-2.5-0.47-2.5-3c0-2.53 0.39-3 2.5-3c2.35 0 2.49-0.3 2.37-4.96c-0.13-4.69 0.08-5.1 3.62-7.46c2.07-1.37 4.2-2.26 4.74-1.98zm574.06 0.1c0.5 0.23 0.87 3.54 0.71 14.29h3.5c3.22 0 3.5 0.24 3.5 3c0 2.76-0.28 3-7 3l0.5 31.5l3.5 0.05c3.31 0.05 3.5 0.24 3.5 3.5c0 3.43-0.03 3.45-5 3.77c-3.81 0.24-5.59-0.15-7.5-1.66c-2.48-1.96-2.5-2.14-3-37.16l-2.75-0.25c-2.2-0.2-2.8-0.8-3-3c-0.22-2.44 0.08-2.75 2.75-2.75c2.97 0 3-0.06 3-5.5c0-5.13 0.22-5.63 3.19-7.35c1.75-1.02 3.6-1.67 4.1-1.44zm94 0c0.5 0.23 0.87 3.54 0.71 14.29h4c3.76 0 3.98 0.17 3.75 2.75c-0.22 2.41-0.71 2.78-7.75 3.25l-0.04 14.75c-0.04 12.13 0.23 14.97 1.5 16c0.85 0.69 2.56 1.14 3.79 1c1.95-0.22 2.25 0.21 2.25 3.25c0 3.37-0.15 3.51-4 3.8c-2.2 0.16-5.13-0.17-6.5-0.73c-1.38-0.57-3.06-2.16-3.75-3.55c-0.84-1.7-1.25-7.73-1.25-34.52h-2.5c-2.11 0-2.5-0.47-2.5-3c0-2.53 0.39-3 2.5-3c2.36 0 2.5-0.3 2.5-5.5c0-5.13 0.22-5.63 3.19-7.35c1.75-1.02 3.6-1.67 4.1-1.44zm122.21-0.61l0.5 14.9h4c3.78 0 4 0.17 4 3c0 2.83-0.22 3-8 3v13.5c0 7.42 0.45 14.62 1 16c0.83 2.08 1.5 2.42 4 2c2.7-0.45 3.05-0.2 3.5 2.5c0.28 1.65 0.28 3.45 0 4c-0.28 0.55-2.75 1-5.5 1c-3.86 0-5.63-0.55-10.5-4.83l-0.5-34.17h-2.5c-2.11 0-2.5-0.47-2.5-3c0-2.53 0.39-3 2.5-3c2.37 0 2.49-0.27 2.34-5.3c-0.16-5.19-0.08-5.35 3.75-7.45l3.91-2.15zm-1525.75 13.99c3.44-0.05 7.71 0.53 9.5 1.28c1.79 0.75 4.15 2.37 5.25 3.6c1.78 1.99 2.07 4.16 2.6 19.39c0.33 9.43 0.89 17.93 1.25 18.9c0.55 1.48 0.04 1.75-3.35 1.75c-3.17 0-4.1-0.42-4.5-2c-0.28-1.1-0.73-2-1-2c-0.28 0-2.64 1.14-5.25 2.52c-3.37 1.79-6.27 2.52-10 2.5c-2.89-0.01-6.6-0.7-8.25-1.52c-1.65-0.82-3.92-2.74-5.03-4.25c-1.22-1.65-2.02-4.25-2-6.5c0.02-2.06 0.71-5.1 1.53-6.75c0.83-1.65 3.19-3.84 5.25-4.87c2.06-1.03 7.57-2.43 12.25-3.11c4.67-0.68 9.06-1.42 9.75-1.63c0.69-0.22 1.25-1.52 1.25-2.89c0-1.37-0.46-3.38-1.02-4.47c-0.56-1.08-2.81-2.43-5-3c-2.3-0.6-5.57-0.7-7.73-0.24c-2.64 0.56-4.34 1.73-5.75 3.96c-1.36 2.16-2.79 3.18-4.5 3.19c-1.38 0.01-3.11-0.31-3.85-0.71c-1.1-0.6-1.01-1.44 0.5-4.58c1.02-2.12 2.97-4.55 4.35-5.42c1.38-0.86 3.63-1.91 5-2.32c1.37-0.41 5.31-0.78 8.75-0.83zm47.5-0.05c2.61-0.02 6.62 0.75 8.9 1.71c2.28 0.96 4.94 2.87 5.91 4.25c0.96 1.37 2.06 3.63 2.42 5c0.55 2.04 0.24 2.64-1.66 3.24c-1.28 0.41-3.11 0.74-4.08 0.75c-0.96 0.01-1.75-0.66-1.75-1.49c0-0.82-1.01-2.67-2.25-4.1c-1.67-1.93-3.29-2.64-6.3-2.75c-2.38-0.09-5.16 0.57-6.75 1.6c-1.49 0.96-3.38 3.33-4.2 5.25c-0.83 1.92-1.5 6.2-1.5 9.5c0 3.3 0.61 7.46 1.36 9.25c0.75 1.79 2.21 3.98 3.25 4.87c1.04 0.89 3.13 1.9 4.64 2.25c1.61 0.37 4.2 0.01 6.25-0.87c2.46-1.05 4.02-2.69 5.25-5.49c1.37-3.13 2.29-3.99 4.25-3.98c1.38 0 3.18 0.41 4 0.91c1.31 0.79 1.32 1.32 0.09 4.23c-0.78 1.83-2.58 4.63-4 6.21c-1.42 1.58-4.05 3.49-5.84 4.25c-1.79 0.76-5.39 1.37-8 1.35c-2.61-0.01-6.66-0.91-9-2c-2.47-1.15-5.29-3.55-6.73-5.73c-1.36-2.06-2.96-6.22-3.55-9.25c-0.75-3.87-0.76-7.2-0.02-11.25c0.58-3.16 1.68-6.99 2.45-8.5c0.77-1.51 2.23-3.51 3.25-4.44c1.02-0.93 3.43-2.37 5.35-3.21c1.92-0.84 5.64-1.54 8.25-1.56zm44 0c2.61-0.02 6.62 0.75 8.9 1.71c2.28 0.96 4.94 2.87 5.91 4.25c0.96 1.37 2.06 3.63 2.42 5c0.55 2.04 0.24 2.64-1.66 3.24c-1.28 0.41-3.11 0.74-4.08 0.75c-0.96 0.01-1.75-0.66-1.75-1.49c0-0.82-1.01-2.67-2.25-4.1c-1.67-1.93-3.29-2.64-6.3-2.75c-2.38-0.09-5.16 0.57-6.75 1.6c-1.49 0.96-3.38 3.33-4.2 5.25c-0.83 1.92-1.5 6.2-1.5 9.5c0 3.3 0.61 7.46 1.36 9.25c0.75 1.79 2.21 3.98 3.25 4.87c1.04 0.89 3.13 1.9 4.64 2.25c1.61 0.37 4.2 0.01 6.25-0.87c2.46-1.05 4.02-2.69 5.25-5.49c1.37-3.13 2.29-3.99 4.25-3.98c1.38 0 3.18 0.41 4 0.91c1.31 0.79 1.32 1.32 0.09 4.23c-0.78 1.83-2.58 4.63-4 6.21c-1.42 1.58-4.05 3.49-5.84 4.25c-1.79 0.76-5.39 1.37-8 1.35c-2.61-0.01-6.66-0.91-9-2c-2.47-1.15-5.29-3.55-6.73-5.73c-1.36-2.06-2.96-6.22-3.55-9.25c-0.75-3.87-0.76-7.2-0.02-11.25c0.58-3.16 1.68-6.99 2.45-8.5c0.77-1.51 2.23-3.51 3.25-4.44c1.02-0.93 3.43-2.37 5.35-3.21c1.92-0.84 5.64-1.54 8.25-1.56zm44-0.02c2.61-0.01 6.44 0.68 8.5 1.53c2.06 0.86 4.82 2.54 6.13 3.75c1.31 1.21 3.21 3.99 4.23 6.19c1.28 2.76 1.85 6.32 1.85 11.5c0 5.18-0.57 8.74-1.85 11.5c-1.02 2.2-2.92 4.99-4.23 6.19c-1.31 1.21-4.07 2.89-6.13 3.75c-2.06 0.86-5.89 1.55-8.5 1.53c-2.61-0.01-6.55-0.84-8.75-1.83c-2.2-0.99-5.24-3.23-6.75-4.98c-1.51-1.74-3.2-4.86-3.74-6.92c-0.55-2.06-0.99-6.22-0.99-9.25c0-3.03 0.45-7.19 0.99-9.25c0.55-2.06 2.23-5.18 3.74-6.92c1.51-1.74 4.55-3.98 6.75-4.98c2.2-0.99 6.14-1.82 8.75-1.83zm100.25 0.06c3.35-0.05 6.07 0.58 8.25 1.92c1.79 1.1 4.04 3.21 5 4.7c1.47 2.27 1.79 5.53 2.25 38.3h-9v-17c0-15.67-0.16-17.16-2-19c-1.41-1.41-3.33-2-6.5-2c-3.33 0-5.22 0.63-10 4.82l-0.5 33.18h-9v-44h4c3.3 0 4.04 0.36 4.24 2.07c0.24 2.03 0.29 2.04 2.75 0.22c1.38-1.02 3.18-2.14 4.01-2.49c0.82-0.35 3.75-0.67 6.5-0.71zm121.25-0.06c3.22-0.01 6.7 0.71 9 1.88c2.06 1.05 4.74 2.96 5.94 4.25c1.21 1.29 2.93 4.15 3.84 6.35c0.98 2.38 1.62 6.63 1.59 10.5c-0.03 3.58-0.58 8.07-1.21 10c-0.63 1.92-2.33 4.79-3.78 6.38c-1.45 1.58-4.43 3.71-6.63 4.73c-2.21 1.02-6.24 1.85-9 1.85c-2.75 0-6.8-0.8-9-1.79c-2.2-0.98-5.19-3.34-6.65-5.23c-1.46-1.89-3.14-5.24-3.74-7.44c-0.6-2.2-1.09-6.03-1.09-8.5c0-2.48 0.49-6.3 1.09-8.5c0.6-2.2 2.12-5.51 3.37-7.36c1.31-1.92 4.15-4.16 6.65-5.23c2.4-1.03 6.73-1.88 9.62-1.89zm71.98-0.02c1.8 0 4.29 0.49 5.52 1.09c2.01 0.97 2.14 1.45 1.25 4.45c-0.98 3.29-1.09 3.35-5.5 2.8c-3.79-0.47-4.82-0.21-6.5 1.65c-1.8 1.99-2.02 3.82-2.5 35.01h-9v-44h4c3.54 0 3.97 0.26 3.77 2.23c-0.22 2.17-0.15 2.15 2.73-0.5c1.96-1.81 4.05-2.73 6.23-2.73zm31.49 0c2.63 0 6.47 0.7 8.53 1.56c2.06 0.86 4.59 2.32 5.61 3.25c1.02 0.93 2.76 3.49 3.87 5.69c1.11 2.2 2.3 6.37 3.27 14.52l-33.5-0.02l0.97 3.75c0.53 2.06 1.81 4.87 2.84 6.25c1.03 1.38 3.63 3.09 5.78 3.82c3.35 1.13 4.45 1.09 7.66-0.25c2.06-0.86 4.54-2.91 5.5-4.56c1.02-1.75 2.58-2.99 3.75-2.99c1.1 0 3.01 0.23 6.5 0.98l-1.89 3.75c-1.04 2.06-2.73 4.51-3.75 5.44c-1.02 0.93-3.54 2.39-5.61 3.25c-2.06 0.86-6.11 1.56-9 1.57c-3.47 0.01-6.77-0.76-9.74-2.25c-2.47-1.24-5.53-3.83-6.8-5.76c-1.27-1.92-2.78-5.3-3.37-7.5c-0.59-2.22-0.8-6.89-0.46-10.5c0.48-5.06 1.3-7.48 3.73-10.91c1.72-2.43 4.97-5.47 7.22-6.75c2.72-1.55 5.7-2.34 8.88-2.34zm69 0c2.63 0 6.47 0.7 8.53 1.56c2.06 0.86 4.59 2.32 5.61 3.25c1.02 0.93 2.76 3.49 3.87 5.69c1.11 2.2 2.3 6.37 3.27 14.52l-33.5-0.02l0.97 3.75c0.53 2.06 1.81 4.87 2.84 6.25c1.03 1.38 3.63 3.09 5.78 3.82c3.35 1.13 4.45 1.09 7.66-0.25c2.06-0.86 4.54-2.91 5.5-4.56c1.02-1.75 2.58-2.99 3.75-2.99c1.1 0 3.01 0.23 6.5 0.98l-1.89 3.75c-1.04 2.06-2.73 4.51-3.75 5.44c-1.02 0.93-3.54 2.39-5.61 3.25c-2.06 0.86-6.11 1.56-9 1.57c-3.47 0.01-6.77-0.76-9.74-2.25c-2.47-1.24-5.53-3.83-6.8-5.76c-1.27-1.92-2.78-5.3-3.37-7.5c-0.59-2.22-0.8-6.89-0.46-10.5c0.48-5.06 1.3-7.48 3.73-10.91c1.72-2.43 4.97-5.47 7.22-6.75c2.72-1.55 5.7-2.34 8.88-2.34zm49.53 0.04c3.44-0.02 7.71 0.57 9.5 1.32c1.79 0.75 4.15 2.37 5.25 3.6c1.78 2 2.06 4.11 2.56 19.39c0.31 9.43 0.98 17.98 1.5 19c0.86 1.69 0.55 1.82-3.56 1.5c-3.8-0.3-4.54-0.7-5-4.85l-4.18 2.75c-3.11 2.04-5.75 2.85-10.25 3.13c-4.49 0.28-7.07-0.11-9.95-1.5c-2.18-1.05-4.54-3.2-5.38-4.88c-0.82-1.65-1.43-4.69-1.36-6.75c0.07-2.06 0.92-4.94 1.88-6.38c0.96-1.45 3.32-3.41 5.25-4.37c1.92-0.95 7.32-2.29 12-2.97c4.67-0.68 9.06-1.42 9.75-1.63c0.69-0.22 1.27-1.4 1.28-2.64c0.02-1.24-0.88-3.49-2-5c-1.42-1.92-3.21-2.91-5.95-3.27c-2.15-0.29-5.19-0.15-6.75 0.31c-1.56 0.46-3.74 2.25-4.84 3.98c-1.36 2.14-2.8 3.16-4.5 3.17c-1.38 0.01-3.18-0.38-4-0.88c-1.25-0.75-1.3-1.37-0.27-3.73c0.67-1.56 2.02-3.62 3-4.58c0.98-0.96 3.57-2.4 5.77-3.21c2.2-0.8 6.81-1.48 10.25-1.51zm45.25 0c3.38 0 7.14 0.76 9.75 1.98c3.12 1.45 4.67 2.98 5.82 5.73c1.28 3.05 1.32 3.89 0.25 4.48c-0.72 0.4-2.44 0.75-3.82 0.78c-1.71 0.03-2.85-0.73-3.59-2.39c-0.62-1.37-2.57-2.93-4.5-3.58c-2.46-0.83-4.58-0.86-7.66-0.1c-3.43 0.85-4.37 1.58-4.89 3.8c-0.47 2.02-0.14 3.15 1.25 4.27c1.04 0.84 4.92 2.3 8.64 3.25c3.71 0.95 8.55 2.63 10.75 3.73c2.79 1.39 4.47 3.14 5.57 5.75c1.04 2.49 1.32 4.76 0.81 6.75c-0.42 1.65-1.91 4.31-3.32 5.92c-1.41 1.6-4.02 3.52-5.81 4.25c-1.79 0.73-5.72 1.33-8.75 1.33c-3.03 0-7.37-0.79-9.65-1.75c-2.28-0.96-4.94-2.87-5.91-4.25c-0.97-1.38-2.06-3.63-2.42-5c-0.55-2.04-0.24-2.64 1.66-3.24c1.28-0.41 3.11-0.74 4.08-0.75c1.07-0.01 1.94 0.95 2.25 2.49c0.27 1.37 1.74 3.28 3.25 4.23c1.56 0.98 4.76 1.74 7.4 1.75c3.28 0.02 5.28-0.57 6.81-1.98c1.5-1.39 2.07-2.92 1.86-5c-0.29-2.76-0.88-3.18-7.31-5.27c-3.85-1.25-8.91-2.94-11.25-3.75c-2.81-0.97-4.93-2.58-6.25-4.73c-1.1-1.79-2-4.49-2-6c0-1.51 0.67-4.1 1.5-5.75c0.9-1.81 3.19-3.79 5.75-4.98c2.61-1.22 6.37-1.98 9.75-1.98zm46.22-0.04c2.63 0 6.47 0.7 8.53 1.56c2.06 0.86 4.59 2.32 5.61 3.25c1.02 0.93 2.76 3.49 3.87 5.69c1.11 2.2 2.3 6.37 3.27 14.52l-33.5-0.02l0.97 3.75c0.53 2.06 1.81 4.87 2.84 6.25c1.03 1.38 3.63 3.09 5.78 3.82c3.35 1.13 4.45 1.09 7.66-0.25c2.06-0.86 4.54-2.91 5.5-4.56c1.02-1.75 2.58-2.99 3.75-2.99c1.1 0 3.01 0.23 6.5 0.98l-1.89 3.75c-1.04 2.06-2.73 4.51-3.75 5.44c-1.02 0.93-3.54 2.39-5.61 3.25c-2.06 0.86-6.11 1.56-9 1.57c-3.47 0.01-6.77-0.76-9.74-2.25c-2.47-1.24-5.53-3.83-6.8-5.76c-1.27-1.92-2.78-5.3-3.37-7.5c-0.59-2.22-0.8-6.89-0.46-10.5c0.48-5.06 1.3-7.48 3.73-10.91c1.72-2.43 4.97-5.47 7.22-6.75c2.72-1.55 5.7-2.34 8.88-2.34zm147.53 0.04c2.89-0.02 6.49 0.44 8 1.02c1.51 0.58 4.04 2.27 5.63 3.75c1.58 1.48 3.71 4.49 4.73 6.69c1.02 2.2 1.86 6.14 1.9 13.5h-16c-14.58 0-16 0.16-15.99 1.75c0.01 0.96 0.88 3.55 1.94 5.75c1.06 2.2 3.15 4.67 4.64 5.5c1.49 0.82 4.15 1.5 5.91 1.5c1.76 0 4.28-0.57 5.6-1.26c1.32-0.69 3.19-2.61 4.15-4.25c1.28-2.18 2.5-2.98 4.5-2.97c1.51 0.01 3.42 0.41 4.25 0.89c1.29 0.75 1.18 1.41-0.79 4.73c-1.26 2.12-3.93 4.98-5.93 6.36c-2.75 1.89-5.25 2.59-10.21 2.87c-5.14 0.29-7.44-0.07-10.57-1.65c-2.2-1.11-4.99-3.08-6.19-4.37c-1.21-1.29-2.89-4.03-3.75-6.1c-0.93-2.24-1.55-6.66-1.53-11c0.01-4.9 0.62-8.55 1.87-11.25c1.02-2.2 2.92-4.96 4.23-6.13c1.31-1.17 3.73-2.84 5.38-3.71c1.65-0.87 5.36-1.6 8.25-1.62zm71.25 0c3.38 0 7.14 0.76 9.75 1.98c3.12 1.45 4.67 2.98 5.82 5.73c1.28 3.05 1.32 3.89 0.25 4.48c-0.72 0.4-2.44 0.75-3.82 0.78c-1.71 0.03-2.85-0.73-3.59-2.39c-0.62-1.37-2.57-2.93-4.5-3.58c-2.46-0.83-4.58-0.86-7.66-0.1c-3.43 0.85-4.37 1.58-4.89 3.8c-0.47 2.02-0.14 3.15 1.25 4.27c1.04 0.84 4.92 2.3 8.64 3.25c3.71 0.95 8.55 2.63 10.75 3.73c2.79 1.39 4.47 3.14 5.57 5.75c1.04 2.49 1.32 4.76 0.81 6.75c-0.42 1.65-1.91 4.31-3.32 5.92c-1.41 1.6-4.02 3.52-5.81 4.25c-1.79 0.73-5.72 1.33-8.75 1.33c-3.03 0-7.37-0.79-9.65-1.75c-2.28-0.96-4.94-2.87-5.91-4.25c-0.97-1.38-2.06-3.63-2.42-5c-0.55-2.04-0.24-2.64 1.66-3.24c1.28-0.41 3.11-0.74 4.08-0.75c1.07-0.01 1.94 0.95 2.25 2.49c0.27 1.37 1.74 3.28 3.25 4.23c1.56 0.98 4.76 1.74 7.4 1.75c3.28 0.02 5.28-0.57 6.81-1.98c1.5-1.39 2.07-2.92 1.86-5c-0.29-2.76-0.88-3.18-7.31-5.27c-3.85-1.25-8.91-2.94-11.25-3.75c-2.81-0.97-4.93-2.58-6.25-4.73c-1.1-1.79-2-4.49-2-6c0-1.51 0.67-4.1 1.5-5.75c0.9-1.81 3.19-3.79 5.75-4.98c2.61-1.22 6.37-1.98 9.75-1.98zm115.75 0c3.32-0.02 6.72 0.7 9.25 1.96c2.2 1.1 5.08 3.46 6.4 5.25c1.32 1.79 2.89 5.05 3.49 7.25c0.6 2.2 1.1 5.46 1.1 10.5h-32l0 2.75c0 1.51 0.9 4.21 2 6c1.1 1.79 3.01 3.78 4.25 4.42c1.24 0.64 4.13 1.2 6.42 1.25c3.15 0.06 4.81-0.53 6.79-2.42c1.44-1.38 2.82-3.29 3.08-4.25c0.31-1.17 1.45-1.75 3.46-1.75c1.65 0 3.67 0.22 4.5 0.5c1.21 0.4 1.29 1.03 0.43 3.25c-0.59 1.51-2.05 3.81-3.25 5.1c-1.2 1.29-3.98 3.26-6.18 4.37c-3.13 1.58-5.43 1.94-10.57 1.65c-5.08-0.29-7.52-0.99-10.75-3.12c-2.4-1.58-5.11-4.56-6.37-7c-1.66-3.23-2.2-6.05-2.23-11.75c-0.02-4.12 0.51-9.19 1.19-11.25c0.68-2.06 2.7-5.17 4.48-6.91c1.79-1.74 4.6-3.75 6.25-4.46c1.65-0.72 5.36-1.32 8.25-1.34zm74.92-0.04c2.38 0 5.57 0.48 7.08 1.06c1.51 0.58 4.23 2.5 6.04 4.25c1.98 1.92 3.88 5.18 4.76 8.19c0.81 2.75 1.46 7.03 1.45 9.5c-0.01 2.48-0.44 6.07-0.97 8c-0.52 1.92-2 5.08-3.29 7c-1.28 1.92-4.12 4.51-6.29 5.73c-2.45 1.38-5.67 2.24-8.46 2.25c-2.76 0.01-5.75-0.76-11-3.98v20h-9v-61h4c3.34 0 3.99 0.32 3.92 1.97c-0.08 1.86 0.12 1.84 3.67-0.5c2.53-1.67 5.16-2.47 8.08-2.47zm46.23-0.02c1.98-0.01 4.5 0.61 5.6 1.38c1.78 1.24 1.86 1.7 0.72 4.27c-1.16 2.61-1.68 2.84-5.5 2.53c-3.53-0.29-4.63 0.09-6.72 2.33c-2.42 2.59-2.51 3.16-3 34.52h-8v-44h3.5c2.44 0 3.5 0.45 3.5 1.5c0 0.82 0.22 1.5 0.5 1.5c0.28 0 1.69-0.9 3.15-2c1.49-1.12 4.23-2.01 6.25-2.02zm31.1 0c3.86-0.02 6.84 0.68 10 2.33c3.01 1.57 5.49 3.95 7.5 7.19c2.74 4.42 3 5.6 2.96 13.42c-0.03 6.85-0.48 9.43-2.25 12.83c-1.26 2.42-4.01 5.43-6.4 7c-3.09 2.03-5.77 2.85-10.25 3.15c-4.91 0.32-7.01-0.06-11.01-2c-2.92-1.42-5.87-3.83-7.23-5.9c-1.26-1.92-2.81-5.98-3.45-9c-0.88-4.18-0.88-6.94 0-11.5c0.64-3.3 2.31-7.62 3.71-9.61c1.4-1.98 4.43-4.57 6.73-5.75c2.75-1.41 6.06-2.15 9.68-2.17zm68.75 0.06c2.89-0.02 6.49 0.44 8 1.02c1.51 0.58 4.04 2.27 5.63 3.75c1.58 1.48 3.71 4.49 4.73 6.69c1.02 2.2 1.86 6.14 1.9 13.5h-16c-14.58 0-16 0.16-15.99 1.75c0.01 0.96 0.88 3.55 1.94 5.75c1.06 2.2 3.15 4.67 4.64 5.5c1.49 0.82 4.15 1.5 5.91 1.5c1.76 0 4.28-0.57 5.6-1.26c1.32-0.69 3.19-2.61 4.15-4.25c1.28-2.18 2.5-2.98 4.5-2.97c1.51 0.01 3.42 0.41 4.25 0.89c1.29 0.75 1.18 1.41-0.79 4.73c-1.26 2.12-3.93 4.98-5.93 6.36c-2.75 1.89-5.25 2.59-10.21 2.87c-5.14 0.29-7.44-0.07-10.57-1.65c-2.2-1.11-4.99-3.08-6.19-4.37c-1.21-1.29-2.89-4.03-3.75-6.1c-0.93-2.24-1.55-6.66-1.53-11c0.01-4.9 0.62-8.55 1.87-11.25c1.02-2.2 2.92-4.96 4.23-6.13c1.31-1.17 3.73-2.84 5.38-3.71c1.65-0.87 5.36-1.6 8.25-1.62zm48.5-0.05c2.61 0 5.99 0.49 7.5 1.07c1.51 0.58 3.99 2.27 5.51 3.75c1.52 1.48 3.32 3.93 4 5.44c0.68 1.52 1.01 2.97 0.74 3.24c-0.28 0.26-2.07 0.75-4 1.07c-3.21 0.54-3.62 0.33-5-2.68c-0.97-2.11-2.74-3.76-5-4.66c-2.97-1.18-4.03-1.18-7-0.01c-1.92 0.76-4.55 2.93-5.83 4.83c-2.08 3.08-2.3 4.39-2 12.14c0.31 8.1 0.53 8.89 3.33 11.72c1.65 1.67 4.24 3.27 5.75 3.56c1.51 0.29 4.32-0.15 6.25-0.97c2.48-1.06 4.01-2.68 5.25-5.53c1.39-3.19 2.27-4.02 4.25-3.98c1.38 0.02 3.11 0.38 3.84 0.78c1.1 0.6 0.99 1.57-0.55 5.23c-1.1 2.62-3.52 5.76-5.78 7.5c-2.85 2.2-5.23 3.1-8.95 3.38c-2.78 0.21-6.64-0.11-8.56-0.71c-1.92-0.6-4.74-2.01-6.25-3.13c-1.51-1.12-3.61-3.73-4.66-5.79c-1.05-2.06-2.23-6-2.61-8.75c-0.38-2.75-0.2-7.47 0.4-10.5c0.6-3.03 2.12-7.07 3.37-9c1.25-1.92 4.3-4.52 6.77-5.76c2.79-1.4 6.29-2.26 9.24-2.25zm66.75 0.05c3.38 0 7.14 0.76 9.75 1.98c3.12 1.45 4.67 2.98 5.82 5.73c1.28 3.05 1.32 3.89 0.25 4.48c-0.72 0.4-2.44 0.75-3.82 0.78c-1.71 0.03-2.85-0.73-3.59-2.39c-0.62-1.37-2.57-2.93-4.5-3.58c-2.46-0.83-4.58-0.86-7.66-0.1c-3.43 0.85-4.37 1.58-4.89 3.8c-0.47 2.02-0.14 3.15 1.25 4.27c1.04 0.84 4.92 2.3 8.64 3.25c3.71 0.95 8.55 2.63 10.75 3.73c2.79 1.39 4.47 3.14 5.57 5.75c1.04 2.49 1.32 4.76 0.81 6.75c-0.42 1.65-1.91 4.31-3.32 5.92c-1.41 1.6-4.02 3.52-5.81 4.25c-1.79 0.73-5.72 1.33-8.75 1.33c-3.03 0-7.37-0.79-9.65-1.75c-2.28-0.96-4.94-2.87-5.91-4.25c-0.96-1.38-2.06-3.63-2.42-5c-0.55-2.04-0.24-2.64 1.66-3.24c1.28-0.41 3.11-0.74 4.08-0.75c1.07-0.01 1.94 0.95 2.25 2.49c0.28 1.37 1.74 3.28 3.25 4.23c1.56 0.98 4.76 1.74 7.4 1.75c3.28 0.02 5.28-0.57 6.81-1.98c1.5-1.39 2.07-2.92 1.85-5c-0.29-2.76-0.88-3.18-7.31-5.27c-3.85-1.25-8.91-2.94-11.25-3.75c-2.81-0.97-4.93-2.58-6.25-4.73c-1.1-1.79-2-4.49-2-6c0-1.51 0.67-4.1 1.5-5.75c0.9-1.81 3.19-3.79 5.75-4.98c2.61-1.22 6.37-1.98 9.75-1.98zm145.75-0.02c3.75-0.01 7.9 0.68 10.39 1.73c2.53 1.07 4.75 2.91 5.71 4.75c1.18 2.25 1.67 6.98 1.96 19c0.21 8.8 0.79 16.79 1.29 17.75c0.79 1.54 0.35 1.75-3.61 1.75c-2.47 0-4.51-0.34-4.52-0.75c-0.01-0.41-0.35-1.3-0.75-1.97c-0.55-0.91-2.02-0.58-5.73 1.27c-3.53 1.76-6.62 2.48-10.5 2.46c-3.71-0.01-6.56-0.67-8.75-2.02c-1.79-1.1-3.98-3.46-4.87-5.25c-1.1-2.21-1.43-4.53-1.02-7.25c0.37-2.46 1.67-5.07 3.37-6.78c1.52-1.53 4.12-3.2 5.77-3.72c1.65-0.52 6.15-1.42 10-2.01c3.85-0.59 7.79-1.28 8.75-1.53c1.25-0.33 1.75-1.47 1.75-3.96c0-2.55-0.61-3.87-2.25-4.88c-1.24-0.76-3.49-1.66-5-2c-1.51-0.34-4.55-0.17-6.75 0.38c-2.92 0.73-4.4 1.81-5.5 4c-0.83 1.65-2.29 2.99-3.25 2.99c-0.96-0.01-2.76-0.23-4-0.5c-2.01-0.44-2.14-0.78-1.18-3.24c0.59-1.51 1.83-3.6 2.75-4.64c0.92-1.04 3.48-2.72 5.68-3.73c2.5-1.15 6.35-1.85 10.25-1.86zm-1735.75 0.98h8v44h-8v-22v-22zm108 0h8l-0.03 16.25c-0.03 14.81 0.15 16.49 2 19c1.65 2.24 2.83 2.76 6.28 2.78c2.75 0.02 5.22-0.68 7-2c1.56-1.15 3.18-3.66 3.74-5.78c0.55-2.06 1-9.71 1.01-30.25h8v44h-4c-3.33 0-4-0.33-4-2c0-1.95-0.07-1.95-3.25 0.22c-2.13 1.45-5.15 2.34-8.75 2.56c-4 0.25-6.45-0.18-9-1.56c-1.92-1.04-4.29-3.43-5.25-5.31c-1.46-2.86-1.75-6.21-1.75-20.67l0-17.25zm307 0h8l-0.03 16.25c-0.03 14.81 0.15 16.49 2 19c1.65 2.24 2.83 2.76 6.28 2.78c2.75 0.02 5.22-0.68 7-2c1.56-1.15 3.18-3.66 3.74-5.78c0.55-2.06 1-9.71 1.01-30.25h8v44h-4c-3.33 0-4-0.33-4-2c0-1.95-0.07-1.95-3.25 0.22c-2.13 1.45-5.15 2.34-8.75 2.56c-4 0.25-6.45-0.18-9-1.56c-1.92-1.04-4.29-3.43-5.25-5.31c-1.46-2.86-1.75-6.21-1.75-20.67l0-17.25zm752 0h8v44h-8v-22v-22zm269.03 0h8.97l-0.04 24.25c-0.02 13.34-0.44 26.27-0.92 28.75c-0.55 2.82-1.84 5.34-3.46 6.75c-1.88 1.64-3.86 2.26-7.33 2.28c-2.61 0.02-4.98-0.18-5.25-0.44c-0.28-0.26-0.39-1.85-0.25-3.53c0.23-2.77 0.6-3.08 7.75-3.56l0.27-27.25l0.27-27.25zm-1363.03 118h9l-0.01 32.5l8.37-8.25c8.12-8 8.52-8.25 17.88-8.25l-16.23 16.5l7.32 11c4.03 6.05 8.07 12.24 10.66 16.5l-9.5-0.01l-14-21.91l-2.28 2.21c-2.03 1.97-2.27 3.15-2.22 19.71h-9v-30v-30zm528 0h9v60h-4c-3.33 0-4-0.33-4-2c0-1.91-0.18-1.88-3.75 0.53c-2.68 1.81-5.03 2.52-8.25 2.48c-2.74-0.03-6.05-0.92-8.46-2.28c-2.18-1.23-5.01-3.81-6.29-5.73c-1.28-1.92-2.76-5.07-3.29-7c-0.52-1.92-0.96-5.52-0.97-8c-0.01-2.48 0.65-6.75 1.45-9.5c0.88-3 2.78-6.27 4.76-8.19c1.81-1.75 4.53-3.67 6.04-4.25c1.51-0.58 4.44-1.06 6.5-1.06c2.06 0 5.44 0.9 11.25 4v-9.5v-9.5zm263 0h48v7h-20v53h-8v-53h-20v-3.5v-3.5zm53 0h48v7h-20v53h-8v-53h-20v-3.5v-3.5zm58 0h8l0.02 17.25c0.01 9.49 0.44 20.18 0.95 23.75c0.77 5.34 1.48 6.99 3.98 9.25c2.03 1.83 4.64 2.96 7.8 3.38c2.98 0.39 6.43 0.1 9.25-0.77c3.77-1.17 4.87-2.12 6.76-5.88c2.13-4.23 2.26-5.65 2.24-46.98h9l0 19.75c0 14.39-0.41 21.38-1.52 25.75c-1.14 4.49-2.46 6.91-5.26 9.6c-2.05 1.98-5.53 4.12-7.73 4.74c-2.2 0.63-6.7 1.14-10 1.13c-3.3-0.01-7.8-0.56-10-1.23c-2.2-0.67-5.59-2.8-7.54-4.73c-2.29-2.27-3.97-5.2-4.75-8.26c-0.75-2.96-1.21-12.66-1.21-25.75v-21zm-466.5 1.1l0.5 14.9h4c3.78 0 4 0.17 4 3c0 2.83-0.22 3-8 3v13.5c0 7.43 0.45 14.63 1 16c0.83 2.08 1.5 2.42 4 2c2.7-0.45 3.05-0.2 3.5 2.5c0.28 1.65 0.28 3.45 0 4c-0.28 0.55-2.75 1-5.5 1c-3.86 0-5.63-0.55-10.5-4.83l-0.5-34.17h-2.5c-2.11 0-2.5-0.47-2.5-3c0-2.53 0.39-3 2.5-3c2.37 0 2.49-0.27 2.34-5.3c-0.16-5.19-0.08-5.35 3.75-7.45l3.91-2.15zm219.79 0.61c0.5 0.23 0.87 3.54 0.71 14.29h3.5c3.22 0 3.5 0.24 3.5 3c0 2.76-0.28 3-7 3l0.5 31.5l3.5 0.05c3.31 0.05 3.5 0.24 3.5 3.5c0 3.43-0.03 3.45-5 3.77c-3.81 0.24-5.59-0.15-7.5-1.66c-2.48-1.96-2.5-2.14-3-37.16l-2.75-0.25c-2.2-0.2-2.8-0.8-3-3c-0.22-2.44 0.08-2.75 2.75-2.75c2.97 0 3-0.06 3-5.5c0-5.13 0.22-5.63 3.19-7.35c1.75-1.02 3.6-1.67 4.1-1.44zm99 0c0.5 0.23 0.87 3.54 0.71 14.29h3.5c3.22 0 3.5 0.24 3.5 3c0 2.76-0.28 3-7 3l0.5 31.5l3.5 0.05c3.31 0.05 3.5 0.24 3.5 3.5c0 3.43-0.03 3.45-5 3.77c-3.81 0.24-5.59-0.15-7.5-1.66c-2.48-1.96-2.5-2.14-3-37.16l-2.75-0.25c-2.2-0.2-2.8-0.8-3-3c-0.22-2.44 0.08-2.75 2.75-2.75c2.97 0 3-0.06 3-5.5c0-5.13 0.22-5.63 3.19-7.35c1.75-1.02 3.6-1.67 4.1-1.44zm-814.29 13.27c3.86-0.02 6.84 0.68 10 2.33c3.01 1.57 5.49 3.95 7.5 7.19c2.74 4.42 3 5.6 2.96 13.42c-0.03 6.85-0.48 9.43-2.25 12.83c-1.26 2.42-4.01 5.43-6.4 7c-3.09 2.03-5.77 2.85-10.25 3.15c-4.91 0.32-7.01-0.06-11.01-2c-2.92-1.42-5.87-3.83-7.23-5.9c-1.26-1.92-2.81-5.97-3.45-9c-0.88-4.18-0.88-6.94 0-11.5c0.64-3.3 2.31-7.62 3.71-9.61c1.4-1.98 4.43-4.57 6.73-5.75c2.75-1.41 6.06-2.15 9.68-2.17zm46.73 0.02c1.8 0 4.29 0.49 5.52 1.09c2.01 0.97 2.14 1.45 1.25 4.45c-0.98 3.29-1.09 3.35-5.5 2.8c-3.79-0.47-4.82-0.21-6.5 1.65c-1.8 1.99-2.02 3.82-2.5 35.01h-9v-44h4c3.54 0 3.97 0.26 3.77 2.23c-0.22 2.17-0.15 2.15 2.73-0.5c1.96-1.81 4.05-2.73 6.23-2.73zm100.52 0.02c2.61-0.01 6.44 0.68 8.5 1.53c2.06 0.86 4.82 2.54 6.13 3.75c1.31 1.21 3.21 3.99 4.23 6.19c1.28 2.76 1.85 6.32 1.85 11.5c0 5.18-0.57 8.74-1.85 11.5c-1.02 2.2-2.92 4.99-4.23 6.19c-1.31 1.21-4.07 2.89-6.13 3.75c-2.06 0.86-5.89 1.55-8.5 1.53c-2.61-0.01-6.55-0.84-8.75-1.83c-2.2-0.99-5.24-3.23-6.75-4.98c-1.51-1.74-3.2-4.86-3.74-6.92c-0.55-2.06-0.99-6.22-0.99-9.25c0-3.03 0.45-7.19 0.99-9.25c0.55-2.06 2.23-5.18 3.74-6.92c1.51-1.74 4.55-3.98 6.75-4.98c2.2-0.99 6.14-1.82 8.75-1.83zm51.75 0.04c2.47-0.03 6.08 0.72 8 1.69c2 1 4.25 3.25 5.25 5.25c1.46 2.93 1.75 6.33 1.75 38h-8l0.03-16.25c0.03-14.81-0.15-16.49-2-19c-1.63-2.2-2.83-2.75-6.03-2.75c-2.2 0-5.01 0.46-6.25 1.03c-1.24 0.57-2.92 2.03-3.75 3.25c-1.14 1.69-1.56 5.97-2 33.72h-8v-44h3.5c2.83 0 3.59 0.43 3.95 2.25c0.42 2.12 0.55 2.15 2.25 0.56c0.99-0.93 2.93-2.14 4.3-2.69c1.38-0.55 4.53-1.03 7-1.06zm72.5 0.16c6.37 0.22 8.66 0.74 11.25 2.53c2.1 1.46 3.6 3.57 4.24 6c0.55 2.06 1 9.94 1 17.5c0 7.56 0.46 14.87 1.01 16.25c0.98 2.44 0.9 2.5-3.5 2.5c-3.33 0-4.5-0.39-4.5-1.5c0-0.82-0.34-1.7-0.75-1.95c-0.41-0.25-3 0.66-5.75 2.02c-3.33 1.64-6.67 2.46-10 2.45c-2.75-0.01-6.58-0.81-8.5-1.77c-2.24-1.12-4.17-3.18-5.38-5.75c-1.37-2.92-1.68-4.95-1.14-7.5c0.41-1.92 2.15-4.9 3.88-6.61c2.11-2.09 4.86-3.48 8.39-4.25c2.89-0.63 6.26-1.14 7.5-1.15c1.24 0 3.94-0.45 6-1c3.43-0.91 3.75-1.29 3.75-4.49c0-2.55-0.61-3.87-2.25-4.88c-1.24-0.76-3.49-1.66-5-2c-1.51-0.34-4.55-0.17-6.75 0.38c-3.04 0.76-4.3 1.72-5.25 4.01c-0.92 2.22-1.9 3-3.75 2.98c-1.38-0.01-3.1-0.35-3.84-0.76c-0.89-0.49-1.1-1.57-0.63-3.23c0.39-1.38 1.44-3.35 2.34-4.39c0.9-1.04 3.43-2.74 5.63-3.78c3.09-1.46 5.81-1.82 12-1.61zm43-0.18c2.75-0.02 6.69 0.41 8.75 0.96c2.08 0.55 4.86 2.33 6.25 3.99c1.38 1.65 2.5 3.9 2.5 5c0 1.1-0.67 2.22-1.5 2.5c-0.83 0.28-2.63 0.5-4 0.5c-1.38 0-2.49-0.56-2.47-1.25c0.02-0.69-0.77-1.98-1.75-2.87c-0.98-0.89-3.02-1.9-4.53-2.25c-1.51-0.35-4.17-0.3-5.92 0.12c-1.74 0.41-3.77 1.76-4.5 3c-0.87 1.47-1.02 2.86-0.44 4c0.56 1.1 4.73 2.91 11.25 4.9c8.12 2.47 10.95 3.82 13.1 6.25c1.96 2.21 2.75 4.18 2.75 6.85c0 2.06-0.9 5.21-2 7c-1.11 1.81-3.88 4.12-6.25 5.23c-2.65 1.23-6.41 1.99-10 2c-3.16 0.01-7.21-0.6-9-1.35c-1.79-0.75-4.25-2.44-5.48-3.75c-1.22-1.31-2.69-3.84-3.25-5.63c-0.93-2.96-0.82-3.29 1.23-3.74c1.24-0.27 3.04-0.49 4-0.5c0.96-0.01 2.15 1 2.64 2.24c0.49 1.24 1.72 2.99 2.75 3.89c1.03 0.9 3.21 1.92 4.86 2.26c1.65 0.34 4.57 0.15 6.5-0.43c1.92-0.58 4.05-1.82 4.72-2.76c0.67-0.94 1.25-2.38 1.28-3.21c0.04-0.82-0.74-2.25-1.72-3.16c-0.98-0.91-5.6-2.71-10.27-4c-5.06-1.39-9.63-3.35-11.31-4.84c-1.55-1.37-3.26-3.85-3.79-5.5c-0.65-2.03-0.61-3.97 0.13-6c0.61-1.65 1.67-3.87 2.35-4.93c0.69-1.06 2.79-2.51 4.68-3.21c1.89-0.7 5.68-1.29 8.43-1.31zm73.25-0.02c3.75-0.01 7.9 0.68 10.39 1.73c2.53 1.07 4.75 2.91 5.71 4.75c1.18 2.25 1.67 6.98 1.96 19c0.21 8.8 0.79 16.79 1.29 17.75c0.79 1.54 0.35 1.75-3.61 1.75c-2.47 0-4.51-0.34-4.52-0.75c-0.01-0.41-0.35-1.3-0.75-1.97c-0.55-0.91-2.02-0.58-5.73 1.27c-3.53 1.76-6.62 2.48-10.5 2.46c-3.71-0.01-6.56-0.67-8.75-2.02c-1.79-1.1-3.98-3.46-4.87-5.25c-1.1-2.21-1.43-4.53-1.02-7.25c0.37-2.46 1.67-5.07 3.37-6.78c1.52-1.53 4.12-3.2 5.77-3.72c1.65-0.52 6.15-1.42 10-2.01c3.85-0.59 7.79-1.28 8.75-1.53c1.25-0.33 1.75-1.47 1.75-3.96c0-2.55-0.61-3.87-2.25-4.88c-1.24-0.76-3.49-1.66-5-2c-1.51-0.34-4.55-0.17-6.75 0.38c-2.92 0.73-4.4 1.81-5.5 4c-0.82 1.65-2.29 2.99-3.25 2.99c-0.96-0.01-2.76-0.23-4-0.5c-2.01-0.44-2.14-0.78-1.18-3.24c0.59-1.51 1.83-3.6 2.75-4.64c0.92-1.04 3.48-2.72 5.68-3.73c2.5-1.15 6.35-1.85 10.25-1.86zm69.75 0.02c2.75-0.02 6.69 0.41 8.75 0.96c2.08 0.55 4.86 2.33 6.25 3.99c1.37 1.65 2.5 3.9 2.5 5c0 1.1-0.67 2.22-1.5 2.5c-0.83 0.28-2.63 0.5-4 0.5c-1.37 0-2.49-0.56-2.47-1.25c0.02-0.69-0.77-1.98-1.75-2.87c-0.98-0.89-3.02-1.9-4.53-2.25c-1.51-0.35-4.17-0.3-5.92 0.12c-1.74 0.41-3.77 1.76-4.5 3c-0.87 1.47-1.02 2.86-0.44 4c0.56 1.1 4.73 2.91 11.25 4.9c8.12 2.47 10.95 3.82 13.1 6.25c1.96 2.21 2.75 4.18 2.75 6.85c0 2.06-0.9 5.21-2 7c-1.11 1.81-3.88 4.12-6.25 5.23c-2.65 1.23-6.41 1.99-10 2c-3.16 0.01-7.21-0.6-9-1.35c-1.79-0.75-4.25-2.44-5.48-3.75c-1.22-1.31-2.69-3.84-3.25-5.63c-0.93-2.96-0.82-3.29 1.23-3.74c1.24-0.27 3.04-0.49 4-0.5c0.96-0.01 2.15 1 2.64 2.24c0.49 1.24 1.72 2.99 2.75 3.89c1.03 0.9 3.21 1.92 4.86 2.26c1.65 0.34 4.58 0.15 6.5-0.43c1.93-0.58 4.05-1.82 4.72-2.76c0.67-0.94 1.25-2.38 1.28-3.21c0.04-0.82-0.74-2.25-1.72-3.16c-0.98-0.91-5.6-2.71-10.27-4c-5.06-1.39-9.63-3.35-11.31-4.84c-1.55-1.37-3.26-3.85-3.79-5.5c-0.65-2.03-0.61-3.97 0.13-6c0.61-1.65 1.67-3.87 2.35-4.93c0.69-1.06 2.79-2.51 4.68-3.21c1.89-0.7 5.68-1.29 8.43-1.31zm171.08 0.17c4.87 0.23 6.92 0.88 10.32 3.28c2.42 1.71 5.04 4.72 6.09 7c1.02 2.2 2.11 6.36 3.01 14.5l-33.5-0.05l0.76 3.27c0.42 1.8 1.57 4.4 2.56 5.77c0.99 1.38 3.57 3.35 5.74 4.39c3.33 1.6 4.51 1.71 7.69 0.75c2.61-0.79 4.36-2.21 5.75-4.64c1.53-2.68 2.65-3.5 4.75-3.48c1.51 0.01 3.36 0.35 4.1 0.75c1.1 0.6 1.01 1.46-0.5 4.66c-1.05 2.24-3.55 5.04-5.79 6.5c-2.7 1.76-5.69 2.69-9.5 2.95c-3.06 0.21-7.36-0.22-9.56-0.96c-2.2-0.73-5.31-2.48-6.92-3.88c-1.61-1.4-3.73-4.34-4.73-6.54c-1.12-2.49-1.82-6.46-1.85-10.5c-0.02-3.58 0.66-8.52 1.53-11c0.86-2.48 2.56-5.57 3.77-6.88c1.21-1.31 4-3.24 6.2-4.28c2.87-1.37 5.71-1.82 10.08-1.62zm50.42-0.15c2.47-0.03 6.08 0.72 8 1.69c2 1 4.25 3.25 5.25 5.25c1.46 2.93 1.75 6.33 1.75 38h-8l0.03-16.25c0.03-14.81-0.15-16.49-2-19c-1.63-2.2-2.83-2.75-6.03-2.75c-2.2 0-5.01 0.46-6.25 1.03c-1.24 0.57-2.92 2.03-3.75 3.25c-1.14 1.69-1.56 5.97-2 33.72h-8v-44h3.5c2.83 0 3.59 0.43 3.95 2.25c0.42 2.12 0.55 2.15 2.25 0.56c0.99-0.93 2.93-2.14 4.3-2.69c1.38-0.55 4.53-1.03 7-1.06zm96.75-0.02c3.44-0.02 7.71 0.57 9.5 1.32c1.79 0.75 4.15 2.37 5.25 3.6c1.78 2 2.06 4.11 2.56 19.39c0.31 9.43 0.98 17.98 1.5 19c0.86 1.69 0.55 1.82-3.56 1.5c-3.8-0.3-4.54-0.7-5-4.85l-4.18 2.75c-3.11 2.04-5.75 2.85-10.25 3.13c-4.49 0.28-7.07-0.11-9.95-1.5c-2.18-1.05-4.54-3.2-5.38-4.88c-0.82-1.65-1.43-4.69-1.36-6.75c0.07-2.06 0.92-4.94 1.88-6.38c0.96-1.45 3.33-3.41 5.25-4.37c1.92-0.95 7.33-2.29 12-2.97c4.67-0.68 9.06-1.42 9.75-1.63c0.69-0.22 1.27-1.4 1.28-2.64c0.02-1.24-0.88-3.49-2-5c-1.42-1.92-3.21-2.91-5.95-3.27c-2.15-0.29-5.19-0.15-6.75 0.31c-1.56 0.46-3.74 2.25-4.84 3.98c-1.36 2.14-2.8 3.16-4.5 3.17c-1.38 0.01-3.18-0.38-4-0.88c-1.25-0.75-1.3-1.37-0.27-3.73c0.67-1.56 2.02-3.62 3-4.58c0.98-0.96 3.57-2.4 5.77-3.21c2.2-0.8 6.81-1.48 10.25-1.51zm-853.25 0.91l2.83 10.28c1.56 5.65 3.5 12.75 4.33 15.78c0.82 3.03 1.85 5.05 2.27 4.5c0.43-0.55 2.53-7.64 8.57-30.5l4.25 0c3.96 0 4.31 0.22 5.1 3.25c0.46 1.79 2.15 8.54 3.75 15.01c1.6 6.47 3.24 11.76 3.65 11.75c0.41-0.01 2.07-4.4 3.68-9.76c1.61-5.36 3.57-12 4.35-14.75c1.39-4.9 1.5-5.01 9.72-5.5l-3.45 10.75c-1.9 5.91-5 15.7-10.33 32.75h-8.66l-3.79-14.5c-2.09-7.97-4.01-14.72-4.27-15c-0.26-0.28-0.68 0.18-0.92 1c-0.25 0.82-1.57 5.77-2.94 11c-1.37 5.22-2.97 11.41-3.56 13.75c-1.06 4.21-1.11 4.25-5.57 4.25c-2.48 0-4.49-0.11-4.48-0.25c0.01-0.14-2.48-8.8-5.53-19.25c-3.05-10.45-5.95-20.24-6.44-21.75c-0.88-2.7-0.82-2.75 7.46-2.8zm589.34 0.05h8.13l0.27 17.09c0.26 16.9 0.29 17.11 2.77 19.04c1.5 1.17 4 1.93 6.25 1.91c2.69-0.03 4.67-0.86 10.25-5.87l0.26-32.17h8.24v44h-3.5c-2.67 0-3.62-0.48-4-2c-0.5-1.99-0.52-1.99-3.25 0.08c-1.67 1.26-4.91 2.28-8.25 2.6c-4.13 0.39-6.46 0.06-9.33-1.33c-2.11-1.02-4.58-2.98-5.5-4.35c-1.37-2.05-1.73-5.76-2-20.75l-0.33-18.25zm513.16 36h9v8h-9v-4v-4z" />
		<path id="Path 2" class="s0" d="m239.25 209.08c0.41-0.04 2.32 0.6 4.25 1.42c1.92 0.83 4.14 2.51 4.93 3.75c0.79 1.24 1.69 3.49 2.57 7.75h-24l0.66-2.75c0.36-1.51 1.23-3.65 1.93-4.75c0.7-1.1 2.31-2.53 3.59-3.18c1.28-0.65 3-1.4 3.82-1.67c0.83-0.27 1.84-0.53 2.25-0.57zm91.25 0.55c1.65 0.36 4.03 1.37 5.3 2.26c1.26 0.89 2.95 3.3 3.75 5.36c0.8 2.06 1.45 6 1.45 8.75c0 2.75-0.65 6.69-1.45 8.75c-0.8 2.06-2.71 4.61-4.25 5.66c-1.54 1.05-4.45 1.95-6.47 2c-2.28 0.06-4.75-0.7-6.5-2c-1.55-1.15-3.49-3.4-4.31-5c-0.9-1.77-1.49-5.73-1.5-10.09c-0.01-5.7 0.41-7.76 2.06-10c1.14-1.55 3.61-3.62 5.5-4.59c2.28-1.17 4.44-1.54 6.43-1.11zm148 0.06c1.65 0.28 4.23 1.7 5.73 3.16c1.5 1.46 3.07 4.13 4.27 9.2l-11.75-0.02c-11.51-0.02-11.75-0.07-11.76-2.27c0-1.24 0.76-3.37 1.69-4.75c0.93-1.37 2.4-2.95 3.26-3.5c0.86-0.55 2.46-1.3 3.56-1.66c1.1-0.36 3.35-0.43 5-0.16zm75.5-0.64c0.28-0.02 2.19 0.41 4.25 0.96c2.55 0.68 4.39 2.03 5.75 4.24c1.1 1.79 2 4.26 2 5.5c0 2.2-0.23 2.25-23.5 2.3l0.79-3.27c0.44-1.8 1.37-4.14 2.07-5.21c0.7-1.06 2.82-2.51 4.71-3.21c1.89-0.7 3.65-1.29 3.93-1.31zm313.5 0.69c1.65 0.26 4.07 1.44 5.38 2.62c1.31 1.18 3 3.6 3.75 5.39c0.75 1.79 1.37 5.5 1.37 8.25c0 2.75-0.62 6.46-1.37 8.25c-0.75 1.79-2.59 4.37-4.08 5.75c-2.14 1.98-3.69 2.48-7.38 2.38c-4.04-0.1-5.11-0.61-7.92-3.75c-2.14-2.39-3.46-5.09-3.86-7.88c-0.34-2.34-0.34-6.39 0-9c0.42-3.26 1.56-5.83 3.62-8.19c1.65-1.89 4.02-3.63 5.25-3.87c1.23-0.24 3.59-0.22 5.24 0.04zm336.5 0.06c1.37 0.26 3.33 1.2 4.35 2.09c1.02 0.89 2.53 2.97 3.36 4.62c0.89 1.78 1.52 5.84 1.54 10c0.03 5.1-0.48 7.89-1.86 10.27c-1.04 1.8-3.36 3.93-5.14 4.75c-2.48 1.13-4.08 1.24-6.75 0.48c-2.13-0.61-4.37-2.28-5.72-4.25c-1.41-2.07-2.37-5.25-2.63-8.75c-0.22-3.03-0.13-7.19 0.22-9.25c0.35-2.06 1.76-5.07 3.15-6.68c1.38-1.61 3.52-3.12 4.75-3.34c1.23-0.22 3.36-0.19 4.73 0.07zm289.75-0.76c0.69-0.02 2.83 0.64 4.75 1.46c1.98 0.85 4.15 2.8 5 4.5c0.83 1.65 1.5 3.9 1.5 5c0 1.88-0.67 2-11.5 2c-10.29 0-11.5-0.18-11.5-1.75c0-0.96 0.99-3.24 2.2-5.06c1.21-1.82 3.57-3.94 5.25-4.71c1.68-0.77 3.62-1.42 4.3-1.44zm149.75 0.65c1.65 0.28 4.23 1.7 5.73 3.16c1.5 1.46 3.07 4.13 4.27 9.2l-11.75-0.02c-11.51-0.02-11.75-0.07-11.76-2.27c0-1.24 0.76-3.37 1.69-4.75c0.93-1.37 2.4-2.95 3.26-3.5c0.86-0.55 2.46-1.3 3.56-1.66c1.1-0.36 3.35-0.43 5-0.16zm119.5-0.64c0.28-0.02 2.19 0.41 4.25 0.96c2.55 0.68 4.39 2.03 5.75 4.24c1.1 1.79 2 4.26 2 5.5c0 2.2-0.23 2.25-23.5 2.3l0.79-3.27c0.44-1.8 1.37-4.14 2.07-5.21c0.7-1.06 2.82-2.51 4.71-3.21c1.89-0.7 3.65-1.29 3.93-1.31zm49 0.51c1.38 0.32 3.51 1.22 4.75 2.01c1.24 0.79 2.97 3.12 3.86 5.18c1.15 2.68 1.5 5.95 1.25 11.48c-0.33 7.15-0.6 7.97-3.57 10.95c-2.29 2.3-4.17 3.23-6.54 3.27c-1.83 0.03-4.54-0.74-6.03-1.7c-1.49-0.96-3.38-3.33-4.21-5.25c-0.83-1.93-1.51-6.54-1.53-10.25c-0.02-5.47 0.42-7.41 2.33-10.24c1.3-1.92 3.45-4.06 4.78-4.76c1.33-0.7 3.54-1.01 4.92-0.7zm-840.27 20.26c0.15 2.3-0.34 5.42-1.09 6.94c-0.75 1.51-3 3.54-5 4.5c-2 0.96-5.1 1.75-6.89 1.76c-1.79 0-4.26-0.67-5.5-1.5c-1.55-1.04-2.26-2.52-2.28-4.76c-0.02-1.85 0.74-3.98 1.75-4.95c0.98-0.94 5.38-2.41 9.78-3.28c4.4-0.87 8.21-1.87 8.48-2.23c0.26-0.36 0.6 1.23 0.75 3.53zm438.77-3.31l0.25 3.25c0.14 1.79-0.31 4.47-1 5.96c-0.69 1.49-2.82 3.75-4.75 5.03c-2.13 1.41-4.97 2.3-7.25 2.29c-2.64-0.02-4.49-0.77-6.25-2.53c-1.38-1.37-2.5-3.4-2.5-4.5c0-1.1 0.9-2.9 2-4c1.1-1.1 2.34-2.04 2.75-2.08c0.41-0.05 4.35-0.83 8.75-1.75l8-1.67zm-248.25 0.62c1.39-0.09 1.75 0.7 1.75 3.88c0 2.2-0.79 5.2-1.75 6.67c-0.96 1.47-3.21 3.27-5 4c-1.79 0.73-4.82 1.33-6.75 1.33c-2.17 0-4.26-0.76-5.5-2c-1.1-1.1-2.01-3.24-2.03-4.75c-0.02-1.51 0.77-3.52 1.75-4.47c0.98-0.95 4.93-2.36 8.78-3.13c3.85-0.78 7.79-1.47 8.75-1.53zm535 0c1.39-0.09 1.75 0.7 1.75 3.88c0 2.2-0.79 5.2-1.75 6.67c-0.96 1.47-3.21 3.27-5 4c-1.79 0.73-4.82 1.33-6.75 1.33c-2.17 0-4.26-0.76-5.5-2c-1.1-1.1-2.01-3.24-2.03-4.75c-0.02-1.51 0.77-3.52 1.75-4.47c0.98-0.95 4.93-2.36 8.78-3.13c3.85-0.78 7.79-1.47 8.75-1.53zm-1296 115.92c0.41-0.02 2.21 0.63 4 1.44c1.79 0.82 3.99 2.73 4.89 4.25c0.9 1.52 1.95 4.57 2.33 6.77c0.38 2.2 0.21 6.47-0.38 9.5c-0.77 3.94-1.94 6.35-4.15 8.5c-2.13 2.08-4.07 3-6.3 3c-1.78 0-4.45-0.79-5.93-1.75c-1.49-0.96-3.38-3.33-4.21-5.25c-0.83-1.92-1.49-6.09-1.48-9.25c0.01-3.59 0.77-7.35 2-10c1.32-2.83 3.06-4.74 5.23-5.71c1.79-0.8 3.59-1.48 4-1.5zm211.25 0.7c1.65 0.26 4.07 1.44 5.38 2.62c1.31 1.18 3 3.6 3.75 5.39c0.75 1.79 1.37 5.5 1.37 8.25c0 2.75-0.62 6.46-1.37 8.25c-0.75 1.79-2.59 4.37-4.08 5.75c-2.14 1.98-3.69 2.48-7.38 2.38c-4.04-0.1-5.11-0.61-7.92-3.75c-2.14-2.39-3.46-5.09-3.86-7.88c-0.34-2.34-0.34-6.39 0-9c0.42-3.26 1.56-5.83 3.62-8.19c1.65-1.89 4.02-3.63 5.25-3.87c1.23-0.24 3.59-0.22 5.24 0.04zm221-0.11c1.65 0.36 4.03 1.37 5.3 2.26c1.26 0.89 2.95 3.3 3.75 5.36c0.8 2.06 1.45 6 1.45 8.75c0 2.75-0.65 6.69-1.45 8.75c-0.8 2.06-2.71 4.61-4.25 5.66c-1.54 1.05-4.45 1.95-6.47 2c-2.28 0.06-4.75-0.7-6.5-2c-1.55-1.15-3.49-3.4-4.31-5c-0.9-1.77-1.49-5.73-1.5-10.09c-0.01-5.7 0.41-7.76 2.06-10c1.14-1.55 3.61-3.62 5.5-4.59c2.28-1.17 4.44-1.54 6.43-1.11zm101.5-0.58c0.27-0.02 2.19 0.41 4.25 0.96c2.55 0.68 4.39 2.03 5.75 4.24c1.1 1.79 2 4.26 2 5.5c0 2.2-0.23 2.25-23.5 2.3l0.79-3.27c0.44-1.8 1.37-4.14 2.07-5.21c0.7-1.06 2.82-2.51 4.71-3.21c1.89-0.7 3.65-1.29 3.93-1.31zm69 0c0.28-0.02 2.19 0.41 4.25 0.96c2.55 0.68 4.39 2.03 5.75 4.24c1.1 1.79 2 4.26 2 5.5c0 2.2-0.23 2.25-23.5 2.3l0.79-3.27c0.44-1.8 1.37-4.14 2.07-5.21c0.7-1.06 2.82-2.51 4.71-3.21c1.89-0.7 3.65-1.29 3.93-1.31zm141 0c0.27-0.02 2.19 0.41 4.25 0.96c2.55 0.68 4.39 2.03 5.75 4.24c1.1 1.79 2 4.26 2 5.5c0 2.2-0.23 2.25-23.5 2.3l0.79-3.27c0.44-1.8 1.37-4.14 2.07-5.21c0.7-1.06 2.82-2.51 4.71-3.21c1.89-0.7 3.65-1.29 3.93-1.31zm148.25 0.03c0.41-0.04 2.32 0.6 4.25 1.42c1.92 0.82 4.14 2.51 4.93 3.75c0.79 1.24 1.69 3.49 2.57 7.75h-24l0.66-2.75c0.36-1.51 1.23-3.65 1.93-4.75c0.7-1.1 2.31-2.53 3.59-3.18c1.28-0.65 3-1.4 3.82-1.67c0.83-0.27 1.84-0.53 2.25-0.57zm138.75 0.72c1.37 0.26 3.33 1.2 4.35 2.09c1.02 0.89 2.53 2.97 3.36 4.62c0.89 1.78 1.52 5.84 1.54 10c0.03 5.1-0.48 7.89-1.86 10.27c-1.04 1.8-3.36 3.93-5.14 4.75c-2.48 1.13-4.08 1.24-6.75 0.48c-2.13-0.61-4.37-2.28-5.72-4.25c-1.41-2.07-2.37-5.25-2.63-8.75c-0.22-3.03-0.13-7.19 0.22-9.25c0.35-2.06 1.76-5.07 3.15-6.68c1.38-1.61 3.52-3.12 4.75-3.34c1.23-0.22 3.36-0.19 4.73 0.07zm47.75-0.76c0.69-0.02 2.82 0.64 4.75 1.46c1.98 0.85 4.15 2.8 5 4.5c0.82 1.65 1.5 3.9 1.5 5c0 1.88-0.67 2-11.5 2c-10.29 0-11.5-0.18-11.5-1.75c0-0.96 0.99-3.24 2.2-5.06c1.21-1.82 3.57-3.94 5.25-4.71c1.68-0.77 3.62-1.42 4.3-1.44zm75.5-0.04c1.64 0 3.9 1.1 5.61 2.75c1.58 1.51 3.37 4.55 3.99 6.75c0.62 2.2 1.12 5.35 1.11 7c-0.01 1.65-0.45 4.8-0.97 7c-0.52 2.2-2.3 5.33-3.95 6.95c-2.07 2.04-4.03 2.97-6.32 3c-1.83 0.03-4.54-0.74-6.03-1.7c-1.49-0.96-3.38-3.33-4.21-5.25c-0.83-1.92-1.5-5.98-1.5-9c0-3.03 0.79-7.39 1.75-9.7c1.01-2.41 3.03-4.96 4.75-6c1.65-0.99 4.24-1.8 5.75-1.8zm76.5 0c0.69 0 2.82 0.67 4.75 1.5c1.92 0.82 4.4 2.96 5.5 4.75c1.52 2.47 2 5.05 2.03 10.75c0.03 6.19-0.37 8.11-2.28 11c-1.46 2.21-3.78 4.02-6.28 4.92c-3.6 1.29-4.34 1.24-7.97-0.5c-2.54-1.22-4.64-3.2-5.75-5.42c-1.13-2.25-1.75-5.81-1.75-10c0-4.19 0.62-7.75 1.75-10c1-2 3.25-4.25 5.25-5.25c1.93-0.96 4.06-1.75 4.75-1.75zm69.5 0.08c0.41-0.04 2.32 0.6 4.25 1.42c1.92 0.82 4.14 2.51 4.93 3.75c0.79 1.24 1.69 3.49 2.57 7.75h-24l0.66-2.75c0.36-1.51 1.23-3.65 1.93-4.75c0.7-1.1 2.31-2.53 3.59-3.18c1.28-0.65 3-1.4 3.82-1.67c0.82-0.27 1.84-0.53 2.25-0.57zm-1217.75 17.42l0.25 3.25c0.14 1.79-0.31 4.47-1 5.96c-0.69 1.49-2.82 3.75-4.75 5.03c-2.13 1.41-4.97 2.3-7.25 2.29c-2.64-0.02-4.49-0.77-6.25-2.53c-1.38-1.37-2.5-3.4-2.5-4.5c0-1.1 0.9-2.9 2-4c1.1-1.1 2.34-2.04 2.75-2.08c0.41-0.05 4.35-0.83 8.75-1.75l8-1.67zm579 0l0.33 2.5c0.18 1.37-0.38 4.19-1.25 6.25c-0.87 2.07-3.03 4.64-4.83 5.75c-1.79 1.1-4.82 2.01-6.75 2.03c-2 0.02-4.68-0.83-6.25-2c-1.54-1.14-2.77-3.02-2.79-4.28c-0.02-1.24 0.76-3.25 1.75-4.48c1.35-1.68 4.04-2.67 10.79-4l9-1.77zm908.23 3.31c0.15 2.3-0.34 5.42-1.09 6.94c-0.75 1.51-3 3.54-5 4.5c-2 0.96-5.1 1.75-6.89 1.76c-1.79 0-4.26-0.67-5.5-1.5c-1.55-1.04-2.26-2.52-2.28-4.76c-0.02-1.85 0.74-3.98 1.75-4.95c0.98-0.94 5.38-2.41 9.78-3.28c4.4-0.87 8.21-1.87 8.48-2.23c0.26-0.36 0.6 1.23 0.75 3.53zm-1731.98 113.19c0.69 0 2.82 0.67 4.75 1.5c1.92 0.82 4.4 2.96 5.5 4.75c1.52 2.47 2 5.05 2.03 10.75c0.03 6.19-0.37 8.11-2.28 11c-1.46 2.21-3.78 4.02-6.28 4.92c-3.6 1.29-4.34 1.24-7.97-0.5c-2.54-1.22-4.64-3.2-5.75-5.42c-1.13-2.25-1.75-5.81-1.75-10c0-4.19 0.62-7.75 1.75-10c1-2 3.25-4.25 5.25-5.25c1.93-0.96 4.06-1.75 4.75-1.75zm149.75 0.73c1.65 0.26 4.07 1.44 5.38 2.62c1.31 1.18 3 3.6 3.75 5.39c0.75 1.79 1.37 5.5 1.37 8.25c0 2.75-0.62 6.46-1.37 8.25c-0.75 1.79-2.59 4.37-4.08 5.75c-2.14 1.98-3.69 2.48-7.38 2.38c-4.04-0.1-5.11-0.61-7.92-3.75c-2.14-2.39-3.46-5.09-3.86-7.88c-0.34-2.34-0.34-6.39 0-9c0.42-3.26 1.56-5.83 3.62-8.19c1.65-1.89 4.02-3.63 5.25-3.87c1.23-0.24 3.59-0.22 5.24 0.04zm427.75-0.7c0.41-0.02 2.33 0.64 4.25 1.46c2.47 1.06 4.08 2.75 5.48 5.75c1.23 2.65 1.99 6.41 2 10c0.01 3.16-0.65 7.33-1.48 9.25c-0.83 1.92-2.72 4.29-4.21 5.25c-1.49 0.96-4.16 1.75-5.93 1.75c-2.24 0-4.17-0.92-6.3-3c-2.21-2.15-3.38-4.56-4.15-8.5c-0.59-3.03-0.76-7.3-0.37-9.5c0.39-2.2 1.32-5.24 2.08-6.75c0.76-1.51 2.84-3.41 4.63-4.21c1.79-0.8 3.59-1.48 4-1.5zm52.25 0.65c1.65 0.28 4.23 1.7 5.73 3.16c1.5 1.46 3.07 4.13 4.27 9.2l-11.75-0.02c-11.51-0.02-11.75-0.07-11.76-2.27c0-1.24 0.76-3.37 1.69-4.75c0.93-1.37 2.4-2.95 3.26-3.5c0.86-0.55 2.46-1.3 3.56-1.66c1.1-0.36 3.35-0.43 5-0.16zm-232.77 20.13c0.15 2.3-0.34 5.42-1.09 6.94c-0.75 1.51-3 3.54-5 4.5c-2 0.96-5.1 1.75-6.89 1.76c-1.79 0-4.26-0.67-5.5-1.5c-1.55-1.04-2.26-2.52-2.28-4.76c-0.02-1.85 0.74-3.98 1.75-4.95c0.98-0.94 5.38-2.41 9.78-3.28c4.4-0.87 8.21-1.87 8.48-2.23c0.26-0.36 0.6 1.23 0.75 3.53zm387.77-3.31l0.33 2.5c0.18 1.37-0.38 4.19-1.25 6.25c-0.87 2.07-3.03 4.64-4.83 5.75c-1.79 1.1-4.82 2.01-6.75 2.03c-2 0.02-4.68-0.83-6.25-2c-1.54-1.14-2.77-3.02-2.79-4.28c-0.02-1.24 0.76-3.25 1.75-4.48c1.35-1.68 4.04-2.67 10.79-4l9-1.77zm-507.25 0.62c1.39-0.09 1.75 0.7 1.75 3.88c0 2.2-0.79 5.2-1.75 6.67c-0.96 1.47-3.21 3.27-5 4c-1.79 0.73-4.82 1.33-6.75 1.33c-2.17 0-4.26-0.76-5.5-2c-1.1-1.1-2.01-3.24-2.03-4.75c-0.02-1.51 0.77-3.52 1.75-4.47c0.98-0.95 4.93-2.36 8.78-3.13c3.85-0.78 7.79-1.47 8.75-1.53z" />
	</g>
</svg>